<?xml version="1.0" encoding="UTF-8" standalone="no"?>
<!-- Created with Inkscape (http://www.inkscape.org/) -->

<svg
   width="210mm"
   height="297mm"
   viewBox="0 0 210 297"
   version="1.1"
   id="svg1"
   inkscape:version="1.4 (86a8ad7, 2024-10-11)"
   sodipodi:docname="Liebre1.2.svg"
   xmlns:inkscape="http://www.inkscape.org/namespaces/inkscape"
   xmlns:sodipodi="http://sodipodi.sourceforge.net/DTD/sodipodi-0.dtd"
   xmlns="http://www.w3.org/2000/svg"
   xmlns:svg="http://www.w3.org/2000/svg">
  <sodipodi:namedview
     id="namedview1"
     pagecolor="#ffffff"
     bordercolor="#000000"
     borderopacity="0.25"
     inkscape:showpageshadow="2"
     inkscape:pageopacity="0.0"
     inkscape:pagecheckerboard="0"
     inkscape:deskcolor="#d1d1d1"
     inkscape:document-units="mm"
     inkscape:zoom="0.97386896"
     inkscape:cx="442.56467"
     inkscape:cy="459.5074"
     inkscape:window-width="1920"
     inkscape:window-height="991"
     inkscape:window-x="-9"
     inkscape:window-y="-9"
     inkscape:window-maximized="1"
     inkscape:current-layer="svg1" />
  <defs
     id="defs1" />
  <g
     inkscape:groupmode="layer"
     id="layer2"
     inkscape:label="Capa 2"
     style="display:none;fill:#d5f6ff">
    <path
       style="fill:#d5f6ff;stroke-width:0.264583"
       id="path10"
       d="m 154.04127,99.624685 c 1.02187,0 2.04374,0 3.0656,0 0.81367,0 1.62733,0 2.441,0 0.54741,0.0237 1.10174,-0.0499 1.64387,0.0424 0.44498,0.11088 0.0542,0.005 0.0607,0.0144 0.0417,0.0596 0.12377,0.0771 0.18018,0.12304 0.0701,0.0571 0.12014,0.13537 0.18509,0.198255 0.32634,0.28926 0.58825,0.63764 0.86896,0.96901 0.31628,0.3823 0.61428,0.78007 0.92766,1.16486 0.35595,0.39093 0.69979,0.79273 1.06752,1.17274 0.2457,0.26586 0.49545,0.52878 0.7568,0.7793 0.13185,0.19528 0.3403,0.44273 0.5093,0.65723 0.3229,0.37173 0.64934,0.74036 0.91411,1.1576 0.38067,0.59647 0.79946,1.16701 1.19049,1.75604 0.53878,0.7956 1.17458,1.51839 1.73567,2.29734 0.46461,0.65755 0.93751,1.30955 1.37046,1.98861 0.40989,0.63546 0.78961,1.28733 1.20696,1.91796 0.30561,0.36079 0.55437,0.76894 0.86236,1.12752 0.59567,0.69351 0.0165,-0.022 0.347,0.39016 0.41841,0.54423 0.98239,0.94643 1.50873,1.37711 0.16728,0.18666 0.43593,0.25308 0.61166,0.426 0.0108,0.0107 5.2e-4,0.0323 0.01,0.0445 0.12401,0.16813 0.26335,0.32455 0.38822,0.49205 0.31985,0.48818 0.63499,0.98011 0.96822,1.45888 0.15168,0.26103 0.37733,0.49083 0.44864,0.78795 0.0787,0.4286 0.0665,0.86922 0.071,1.30338 0.003,0.5927 2.6e-4,1.18541 -0.001,1.7781 -0.001,0.53777 -0.002,1.07553 -0.002,1.61329 -0.0119,0.48229 -0.002,0.95969 0.0644,1.43787 0.0336,0.3057 0.12237,0.61444 0.0696,0.91903 -0.0464,-0.31853 0.506,-0.44325 0.0517,-0.40262 -0.52919,0.0306 -1.05969,0.0232 -1.58952,0.0216 -0.7939,0.0194 -1.58387,-0.0244 -2.37288,-0.10974 -1.06862,-0.19845 -2.13368,-0.41517 -3.1978,-0.63748 -1.36633,-0.26278 -2.74312,-0.46291 -4.12638,-0.61031 -1.30767,-0.10093 -2.61398,-0.22082 -3.92345,-0.2975 -0.9827,-0.0292 -1.96224,-0.11021 -2.93969,-0.21344 -1.00308,-0.0761 -1.99922,-0.19686 -2.9879,-0.3814 -0.9713,-0.20057 -1.92905,-0.45979 -2.8789,-0.74379 -1.27763,-0.42004 -2.51119,-0.95285 -3.70504,-1.56955 -1.64688,-0.83639 -3.25197,-1.74852 -4.91667,-2.54969 -0.23894,-0.1145 -0.47788,-0.22901 -0.71683,-0.34351 -1.27597,-0.61146 -2.14071,1.19304 -0.86473,1.8045 v 0 c 0.23814,0.11412 0.47628,0.22824 0.71442,0.34236 1.64897,0.79218 3.23628,1.69966 4.86825,2.5256 1.3053,0.66939 2.65047,1.2552 4.04768,1.70751 1.01768,0.30395 2.04419,0.58094 3.0852,0.7937 1.04095,0.19372 2.08958,0.32415 3.14558,0.40433 1.00819,0.10529 2.01843,0.19084 3.03195,0.22098 1.27792,0.0744 2.55263,0.19255 3.82888,0.28973 1.31701,0.13927 2.62753,0.33101 3.92864,0.57925 1.12906,0.23563 2.25878,0.46945 3.39469,0.66845 0.85744,0.0902 1.71627,0.14159 2.57888,0.121 0.60516,0.002 1.21145,0.0111 1.81543,-0.0337 0.87153,-0.10533 1.50191,-0.38676 1.71129,-1.31706 0.0605,-0.49365 0.0165,-0.97886 -0.071,-1.46745 -0.0558,-0.38476 -0.0506,-0.76899 -0.0448,-1.15778 2.4e-4,-0.53643 7.9e-4,-1.07286 0.002,-1.60929 0.002,-0.60137 0.005,-1.20275 0.001,-1.80412 -0.007,-0.62944 0.004,-1.26928 -0.16276,-1.8817 -0.16529,-0.4921 -0.42635,-0.92542 -0.72658,-1.34751 -0.35734,-0.48303 -0.65325,-1.01297 -1.0009,-1.50356 -0.38505,-0.50754 -0.78655,-0.98759 -1.34385,-1.31002 -0.4266,-0.34653 -0.89169,-0.66503 -1.23156,-1.10207 -0.37114,-0.44065 -0.74092,-0.87947 -1.08198,-1.3459 -0.41137,-0.6216 -0.78407,-1.26524 -1.1894,-1.89097 -0.45501,-0.71089 -0.94733,-1.39639 -1.43575,-2.08455 -0.54988,-0.75664 -1.16009,-1.4673 -1.69321,-2.23633 -0.39164,-0.58241 -0.80143,-1.15232 -1.18171,-1.74279 -0.30654,-0.45728 -0.64551,-0.88928 -1.01459,-1.29705 -0.23445,-0.29754 -0.46789,-0.59743 -0.71625,-0.88214 -0.25146,-0.21405 -0.4563,-0.4831 -0.69074,-0.71479 -0.33217,-0.33416 -0.6291,-0.7012 -0.95215,-1.04405 -0.32385,-0.38917 -0.62322,-0.79956 -0.94742,-1.188535 -0.32325,-0.38112 -0.62932,-0.77857 -1.0035,-1.11277 -0.427,-0.41338 -0.8868,-0.80972 -1.50479,-0.87442 -0.64892,-0.0985 -1.30229,-0.0638 -1.95688,-0.067 -0.81366,0 -1.62733,0 -2.441,0 -1.02187,0 -2.04374,0 -3.0656,0 -1.41492,0 -1.41492,2.001 0,2.001 z" />
    <path
       style="fill:#d5f6ff;stroke-width:0.264583"
       id="path11"
       d="m 145.24876,114.40604 c 0.53458,0.33502 1.08012,0.64877 1.63319,0.95211 1.24058,0.68041 2.20282,-1.07404 0.96224,-1.75445 v 0 c -0.54994,-0.30161 -1.09088,-0.61564 -1.62366,-0.94685 -1.23687,-0.68714 -2.20864,1.06205 -0.97177,1.74919 z" />
    <path
       style="fill:#d5f6ff;stroke-width:0.264583"
       id="path12"
       d="m 145.55247,111.15644 c 0.28183,0.11707 0.55363,0.25644 0.82928,0.38716 1.27851,0.60614 2.13573,-1.20194 0.85722,-1.80809 v 0 c -0.32622,-0.15462 -0.64786,-0.31987 -0.9839,-0.45267 -1.32483,-0.49681 -2.02743,1.37679 -0.7026,1.8736 z" />
    <path
       style="fill:#d5f6ff;stroke-width:0.264583"
       id="path13"
       d="m 159.24565,106.93228 c 0.55163,0.20934 1.09794,0.41964 1.6062,0.72238 0.74548,0.60671 1.33767,1.37823 1.93455,2.12546 0.62144,0.77254 1.26169,1.52566 1.93167,2.25607 0.37057,0.41551 0.70889,0.85565 1.09501,1.25774 0.39346,0.42399 0.82247,0.81217 1.22048,1.23194 0.32144,0.33669 0.67046,0.64864 0.98379,0.99291 -0.44794,-0.45846 -0.11932,-1.1794 0.41026,-1.39981 -0.30012,-0.0714 -0.84197,-0.0205 -1.09357,-0.19792 -0.73242,-0.35341 -1.49717,-0.63156 -2.24104,-0.9577 -0.55426,-0.26713 -1.1515,-0.42699 -1.68745,-0.73135 -0.48253,-0.34332 -0.93757,-0.71789 -1.35974,-1.13281 -0.40102,-0.45814 -0.67142,-1.00445 -0.95531,-1.53746 -0.29797,-0.50605 -0.57062,-1.0278 -0.87061,-1.53276 -0.3256,-0.44896 -0.60802,-0.92616 -0.93291,-1.37534 -0.29772,-0.36916 -0.55975,-0.76559 -0.85997,-1.13242 -0.36668,-0.41874 -0.72596,-0.84275 -1.13147,-1.2244 -0.71334,-0.64771 -1.58188,-1.07317 -2.45261,-1.46423 -0.53316,-0.27086 -1.08372,-0.49549 -1.65976,-0.65486 -1.36621,-0.36808 -1.88675,1.56403 -0.52054,1.93211 v 0 c 0.47656,0.12254 0.91992,0.33336 1.36113,0.54839 0.67792,0.30389 1.3657,0.61807 1.92506,1.11856 0.35314,0.29734 0.61753,0.68987 0.93752,1.02127 0.28116,0.33161 0.51239,0.70457 0.78839,1.04077 0.29726,0.39354 0.52945,0.83245 0.83146,1.22323 0.28989,0.46911 0.53327,0.96854 0.81833,1.44062 0.38027,0.71341 0.7588,1.43468 1.32155,2.02645 0.55102,0.53762 1.14477,1.03135 1.7898,1.45322 0.59719,0.32588 1.23622,0.54219 1.85785,0.81544 0.75847,0.32877 1.53367,0.61823 2.28056,0.97442 0.56476,0.20768 1.14585,0.30456 1.74639,0.34491 0.38921,-0.005 0.91915,-0.004 1.18576,-0.37363 0.41787,-0.57912 0.3782,-1.07289 -0.0264,-1.59022 -0.32502,-0.34353 -0.66634,-0.67156 -0.99834,-1.00832 -0.40478,-0.42258 -0.83461,-0.81954 -1.23451,-1.24651 -0.37939,-0.38138 -0.68513,-0.82456 -1.05466,-1.21505 -0.63954,-0.69683 -1.25032,-1.41559 -1.84332,-2.15294 -0.75025,-0.93731 -1.49868,-1.90943 -2.49068,-2.60513 -0.65661,-0.3764 -1.34855,-0.6687 -2.06313,-0.91704 -1.36048,-0.38871 -1.91021,1.5353 -0.54973,1.92401 z" />
    <path
       style="fill:#d5f6ff;stroke-width:0.264583"
       id="path14"
       d="m 165.85138,122.72141 c 0.24824,2.76812 0.28152,5.54901 0.26864,8.32618 -0.0828,2.85928 -0.36905,5.71358 -0.90864,8.52271 -0.26585,1.38971 1.6995,1.76569 1.96537,0.37597 v 0 c 0.55854,-2.93086 0.86359,-5.90676 0.94425,-8.88977 0.0119,-2.77955 -0.0117,-5.56511 -0.26861,-8.33509 0,-1.41492 -2.001,-1.41492 -2.00101,0 z" />
    <path
       style="fill:#d5f6ff;stroke-width:0.264583"
       id="path15"
       d="m 170.96526,123.56978 c 0.49525,1.02658 0.75547,2.13775 0.98471,3.24765 0.14328,0.58946 0.16604,1.15468 0.005,1.73641 -0.31912,1.37847 1.63032,1.82976 1.94943,0.45129 v 0 c 0.0457,-0.2183 0.1094,-0.4336 0.13714,-0.65491 0.0817,-0.65128 -0.008,-1.30076 -0.13257,-1.93933 -0.29361,-1.40907 -0.62302,-2.84942 -1.38146,-4.09113 -0.88389,-1.10486 -2.44642,0.14515 -1.56252,1.25002 z" />
    <circle
       id="path16"
       style="fill:#d5f6ff;stroke:#000000;stroke-width:0.264583"
       cx="172.23094"
       cy="130.13"
       r="0.012800834" />
    <path
       style="fill:#d5f6ff;stroke-width:0.264583"
       id="path17"
       d="m 153.20543,96.434095 c -0.82542,-0.83847 -1.72881,-1.59301 -2.63186,-2.34511 -0.16975,-0.13452 -0.33951,-0.26904 -0.50926,-0.40356 -1.10935,-0.87826 -2.35139,0.69061 -1.24204,1.56886 v 0 c 0.15691,0.1241 0.31383,0.2482 0.47074,0.37229 0.85643,0.71326 1.71489,1.42701 2.4975,2.22244 1.0005,1.0005 2.41542,-0.41443 1.41492,-1.41492 z" />
    <path
       style="fill:#d5f6ff;stroke-width:0.264583"
       id="path18"
       d="m 147.68098,96.135045 c -0.0133,-1.19526 0.0679,-2.3888 0.11493,-3.58271 0.0625,-1.30022 0.0265,-2.60318 0.0647,-3.90375 0.0159,-0.53993 0.0814,-1.44989 0.11712,-1.98757 0.19062,-1.91902 0.3297,-3.84166 0.51767,-5.76083 0.22866,-1.92498 0.50694,-3.84287 0.74466,-5.76689 0.24037,-1.58741 0.4204,-3.18247 0.60294,-4.77721 0.17978,-1.38585 0.36117,-2.77119 0.56871,-4.15317 0.12362,-1.09124 0.29307,-2.17658 0.42775,-3.26639 0.1705,-0.91083 0.38803,-1.7548 -0.81071,-2.20844 -0.26852,-0.10161 -0.56784,0.0853 -0.85177,0.12788 -1.96253,0.98339 -3.85505,2.10071 -5.75917,3.19125 -1.42785,0.88198 -3.02186,1.5058 -4.36157,2.5301 -0.59531,0.45515 -0.69361,0.60541 -1.17188,1.12966 -0.67231,0.86344 -0.91127,1.73873 -0.87942,2.81181 0.0499,0.70199 0.1685,1.39398 0.28998,2.08606 0.19409,0.85761 0.40256,1.71185 0.61627,2.56481 0.0479,0.37623 0.24636,0.77371 0.2012,1.16118 -0.002,0.0205 -0.0227,-0.0404 -0.0157,-0.0597 0.0582,-0.15867 0.13819,-0.30847 0.20729,-0.4627 1.99071,-0.6342 0.27137,-0.29945 1.16665,-0.16231 0.0684,0.0105 -0.0971,-0.10199 -0.12655,-0.16465 -0.28173,-0.60033 0.26084,0.51508 -0.22771,-0.47996 -0.27301,-0.52827 -0.48467,-1.07576 -0.67038,-1.63955 -0.18823,-0.71894 -0.47099,-1.40482 -0.80253,-2.06871 -0.43687,-0.93235 -1.00892,-1.78303 -1.60773,-2.61657 -0.56128,-0.74557 -1.178,-1.45962 -1.85485,-2.10293 -0.6842,-0.65134 -1.45385,-1.20715 -2.21426,-1.76558 -0.91788,-0.64505 -1.83679,-1.28894 -2.76781,-1.91502 -1.41893,-0.82998 -2.86827,-1.61105 -4.30713,-2.40789 -0.59051,-0.3326 -1.16802,-0.68683 -1.74648,-1.03959 -0.0529,-0.0323 -0.74147,-0.456973 -0.8427,-0.477938 -0.29033,-0.06013 -0.59179,-0.03771 -0.88768,-0.05657 -0.30217,0.295966 -0.67354,0.534858 -0.90649,0.887898 -0.17126,0.25954 -0.27799,1.29734 -0.30582,1.5949 -0.0694,0.74196 -0.0785,1.48874 -0.0921,2.23318 -0.0383,1.26742 0.0289,2.53172 0.0993,3.79644 0.0695,0.77016 0.0349,1.54744 0.0893,2.31794 0.0208,0.29493 0.0942,0.80238 0.13444,1.09905 0.25682,1.34522 0.82074,2.61307 1.36859,3.86154 0.57451,1.42857 1.36336,2.7507 2.20169,4.03671 0.82274,1.22324 1.64142,2.44874 2.45434,3.6786 0.64604,0.97404 1.31885,1.92993 1.96752,2.90249 0.6459,0.92692 1.34571,1.81451 2.03256,2.71122 0.57208,0.83486 1.25258,1.58873 1.83304,2.41651 0.34937,0.5267 0.78039,0.99912 1.11932,1.5323 0.45523,0.96212 0.89766,1.92728 1.41833,2.8563 0.65377,1.1187 1.2278,2.27907 1.82914,3.42571 0.60242,1.05057 1.25269,2.070915 1.8433,3.129575 0.72817,1.34509 1.5065,2.66147 2.27593,3.98312 0.71188,1.22279 2.44117,0.21604 1.72929,-1.00675 v 0 c -0.76331,-1.31113 -1.53576,-2.61683 -2.25783,-3.95139 -0.58243,-1.043615 -1.21971,-2.051985 -1.81883,-3.084345 -0.6111,-1.1638 -1.19393,-2.34193 -1.85746,-3.47779 -0.54625,-0.96454 -0.97365,-1.98512 -1.48557,-2.96714 -0.36272,-0.54821 -0.78948,-1.05106 -1.16082,-1.59345 -0.60021,-0.84601 -1.28666,-1.62715 -1.87931,-2.47945 -0.66038,-0.86209 -1.33341,-1.71515 -1.95643,-2.60479 -0.6472,-0.97022 -1.31836,-1.92388 -1.96292,-2.89556 -0.81089,-1.22658 -1.62736,-2.4489 -2.44797,-3.6689 -0.78019,-1.19358 -1.51475,-2.42055 -2.04575,-3.7488 -0.47526,-1.07708 -0.9647,-2.17182 -1.21738,-3.32517 -0.002,-0.0141 -0.11168,-0.80854 -0.11697,-0.88433 -0.0551,-0.78935 -0.0211,-1.58541 -0.0917,-2.37439 -0.0677,-1.21569 -0.13435,-2.43075 -0.0966,-3.64908 0.0157,-0.88102 0.0463,-1.7551 0.14185,-2.6315 0.0117,-0.10731 0.14056,-0.29138 0.037,-0.3217 -0.18194,-0.0533 -0.36096,0.11603 -0.54144,0.17404 -0.12457,-0.0478 -0.24086,-0.15603 -0.37371,-0.14349 -0.1093,0.0103 0.19713,0.097 0.29264,0.15114 0.76094,0.43133 1.48251,0.93164 2.25488,1.34396 1.38866,0.769 2.78509,1.52655 4.16001,2.31792 0.90827,0.61064 1.80448,1.23899 2.70032,1.86759 0.6972,0.51147 1.40498,1.01793 2.03222,1.61463 0.59332,0.53927 1.10293,1.17934 1.59608,1.80865 0.53992,0.75077 1.05917,1.51379 1.44916,2.35615 0.29821,0.56917 0.51967,1.16983 0.68615,1.78963 0.21572,0.64994 0.46384,1.28313 0.7745,1.89412 0.19383,0.39368 0.75397,1.52339 1.29808,1.55917 0.37271,0.0245 0.73262,-0.14606 1.09892,-0.21909 0.11644,-0.20149 0.26412,-0.38793 0.34933,-0.6045 0.19755,-0.50209 -0.12806,-1.42461 -0.2149,-1.93669 -0.20211,-0.80663 -0.39711,-1.61481 -0.58642,-2.42451 -0.10706,-0.60963 -0.21459,-1.21818 -0.26215,-1.83629 -0.046,-0.50481 0.0739,-0.96447 0.37186,-1.38117 0.32225,-0.37052 0.40138,-0.49249 0.81787,-0.81753 1.28421,-1.00224 2.85141,-1.57055 4.21893,-2.44022 1.79698,-1.02918 3.5904,-2.06506 5.4194,-3.03677 -0.51866,-0.1402 -0.3742,-0.0447 -0.85543,-0.78807 -0.029,-0.0447 0.005,-0.2101 0.019,-0.15864 0.059,0.22091 -0.18171,0.66857 -0.1418,0.89171 -0.13172,1.07245 -0.30011,2.14025 -0.42062,3.21417 -0.21069,1.40509 -0.3957,2.81349 -0.57787,4.22255 -0.18183,1.58882 -0.36145,3.17789 -0.60083,4.75942 -0.23973,1.94076 -0.52148,3.8752 -0.75022,5.81717 -0.19,1.94 -0.33113,3.88348 -0.52281,5.82341 -0.0424,0.64006 -0.10262,1.46365 -0.12143,2.10255 -0.0377,1.28017 -0.002,2.56271 -0.0632,3.84256 -0.048,1.22011 -0.13032,2.43988 -0.11649,3.66139 0,1.41492 2.001,1.41492 2.001,0 z" />
    <path
       style="fill:#d5f6ff;stroke-width:0.264583"
       id="path19"
       d="m 133.15863,93.805705 c -1.04872,0.7878 -2.21881,1.40166 -3.35912,2.04502 -1.01258,0.50779 -1.95398,1.13961 -2.93896,1.69481 -0.76457,0.45143 -1.55337,0.86033 -2.32013,1.30715 -0.49649,0.27312 -0.24853,0.13547 -0.74388,0.41294 -1.23441,0.69155 -0.25642,2.437265 0.97799,1.745715 v 0 c 0.49845,-0.27928 0.23942,-0.13513 0.77728,-0.43208 0.75576,-0.44556 1.54002,-0.843025 2.29425,-1.292235 0.98266,-0.55793 1.92598,-1.18406 2.93676,-1.69357 1.25893,-0.71038 2.55246,-1.38809 3.69347,-2.28185 1.06484,-0.93173 -0.25283,-2.43764 -1.31766,-1.5059 z" />
    <path
       style="fill:#d5f6ff;stroke-width:0.264583"
       id="path20"
       d="m 123.30091,99.518035 c -1.3391,-0.48675 -2.6614,-1.02224 -3.9794,-1.56358 -1.28292,-0.51348 -2.58262,-0.98246 -3.87458,-1.47213 -1.62314,-0.61651 -3.28269,-1.13264 -4.94222,-1.64101 -1.8539,-0.523 -3.67406,-1.15204 -5.48605,-1.80277 -1.8021,-0.65275 -3.63612,-1.21075 -5.473731,-1.75359 -1.9032,-0.53847 -3.797839,-1.10827 -5.68607,-1.69717 -1.744438,-0.54686 -3.482192,-1.11462 -5.226283,-1.66254 -1.557776,-0.44132 -3.094262,-0.95426 -4.650155,-1.40168 -1.03591,-0.25878 -2.058807,-0.55986 -3.096421,-0.81274 -1.253869,-0.28449 -2.531232,-0.44608 -3.812704,-0.53435 -0.74516,-0.0227 -1.484482,-0.12396 -2.227123,-0.1822 -0.299495,-0.0436 -0.599482,-0.0829 -0.89985,-0.11995 -1.404321,-0.17287 -1.648799,1.81313 -0.244478,1.98601 v 0 c 0.330002,0.0405 0.659067,0.087 0.988894,0.12889 0.749117,0.0579 1.494766,0.16174 2.24646,0.18361 1.16789,0.0787 2.331958,0.22622 3.475189,0.48213 1.011298,0.24625 2.007991,0.54047 3.017782,0.79189 1.540356,0.4416 3.060514,0.95177 4.602726,1.38742 1.74553,0.54828 3.484636,1.11669 5.230529,1.66387 1.897965,0.59122 3.801859,1.16492 5.71474,1.70586 1.800835,0.53172 3.598205,1.07814 5.364175,1.71778 1.84186,0.66145 3.69217,1.30047 5.57639,1.83281 1.61811,0.49548 3.23645,0.99803 4.81911,1.59888 1.27495,0.48309 2.55743,0.94601 3.82367,1.45203 1.37857,0.565795 2.76061,1.129115 4.16441,1.629135 1.35525,0.40657 1.93024,-1.510035 0.57499,-1.916605 z" />
    <path
       style="fill:#d5f6ff;stroke-width:0.264583"
       id="path21"
       d="m 72.705036,85.526225 c -0.978538,-0.5048 -1.816386,-1.22505 -2.665699,-1.91618 -0.230232,-0.18776 -0.460465,-0.37551 -0.690697,-0.56327 -1.096526,-0.89422 -2.361144,0.6565 -1.264618,1.55072 v 0 c 0.230835,0.18825 0.461671,0.3765 0.692507,0.56474 1.033901,0.84095 2.062996,1.72321 3.295734,2.26231 1.342314,0.44743 1.975083,-1.45088 0.632773,-1.89832 z" />
    <path
       style="fill:#d5f6ff;stroke-width:0.264583"
       id="path22"
       d="m 71.384871,88.245765 c -1.708492,-1.23072 -3.338857,-2.56355 -4.977866,-3.88409 -0.820055,-0.70583 -1.658453,-1.38983 -2.494634,-2.07632 -1.093589,-0.89781 -2.363285,0.64875 -1.269696,1.54656 v 0 c 0.840933,0.69038 1.68389,1.37847 2.508909,2.08793 1.640758,1.32196 3.272218,2.65737 4.983271,3.88844 1.104868,0.88389 2.354881,-0.67862 1.250016,-1.56252 z" />
    <path
       style="fill:#d5f6ff;stroke-width:0.264583"
       id="path23"
       d="m 66.087092,88.974355 c -1.845847,-1.38035 -3.568589,-2.9154 -5.323684,-4.40708 -1.727231,-1.4944 -3.566747,-2.84992 -5.38262,-4.23266 -1.125704,-0.8572 -2.337966,0.73479 -1.212262,1.59198 v 0 c 1.787414,1.36108 3.598915,2.69435 5.29903,4.1654 1.824791,1.55085 3.613528,3.15179 5.545248,4.57053 1.193716,0.75963 2.268003,-0.92853 1.074288,-1.68817 z" />
    <path
       style="fill:#d5f6ff;stroke-width:0.264583"
       id="path24"
       d="m 59.256323,88.594585 c -1.091568,0 -2.183135,0 -3.274703,0 -1.169384,0 -2.338768,0 -3.508153,0 -0.804203,0 -1.608407,0 -2.412611,0 -0.639614,0 -1.279228,0 -1.918843,0 -0.68291,0 -1.365821,0 -2.048734,0 -0.548003,-0.009 -1.091809,-0.009 -1.63561,0.064 -0.662728,0.11128 -1.268682,0.3534 -1.855694,0.6737 -0.820405,0.54663 -1.623735,1.11803 -2.435675,1.67752 -0.843177,0.65156 -1.700596,1.28379 -2.574743,1.89311 -1.034766,0.672 -1.95522,1.49399 -2.951339,2.21904 -0.722088,0.52217 -1.46576,1.0124 -2.200625,1.51613 -0.408932,0.27281 -0.785481,0.58914 -1.176776,0.88542 -0.484063,0.39231 -0.94977,0.80834 -1.409004,1.22935 -0.342419,0.25398 -0.603891,0.60899 -0.954313,0.85117 -0.340968,0.26496 -0.687276,0.520575 -1.015058,0.802505 -0.35418,0.25205 -0.694793,0.50822 -1.011806,0.80658 -0.27791,0.21261 -0.539047,0.45274 -0.78564,0.7016 -0.452195,0.40678 -0.918206,0.79834 -1.351745,1.22468 -0.466551,0.52482 -0.752945,1.16931 -1.067361,1.789 -0.106896,0.21078 -0.173198,0.4375 -0.2554,0.65814 -0.490144,1.32731 1.38696,2.02048 1.877104,0.69317 v 0 c 0.05485,-0.1495 0.101009,-0.30085 0.163396,-0.4472 0.218846,-0.433 0.419943,-0.88016 0.697987,-1.27899 0.426019,-0.43949 0.921194,-0.80928 1.361764,-1.23479 0.228165,-0.23382 0.476622,-0.44607 0.73223,-0.64935 0.294099,-0.27745 0.625981,-0.49825 0.946534,-0.74772 0.292529,-0.25332 0.604441,-0.47943 0.909164,-0.71726 0.390951,-0.30256 0.731491,-0.65958 1.108313,-0.97929 0.412451,-0.381595 0.835808,-0.753435 1.268711,-1.111605 0.362363,-0.27858 0.716032,-0.56901 1.094725,-0.82595 0.749379,-0.51551 1.510217,-1.01358 2.246243,-1.54841 0.984277,-0.71799 1.896547,-1.52724 2.91733,-2.19479 0.871027,-0.60744 1.727864,-1.23471 2.565922,-1.887 0.759116,-0.5234 1.514922,-1.05058 2.272342,-1.57616 0.369551,-0.21167 0.734615,-0.36082 1.155221,-0.44015 0.452816,-0.0642 0.906944,-0.0461 1.363803,-0.0454 0.682913,0 1.365824,0 2.048734,0 0.639615,0 1.279229,0 1.918843,0 0.804204,0 1.608408,0 2.412611,0 1.169385,0 2.338769,0 3.508153,0 1.091568,0 2.183135,0 3.274703,0 1.41492,0 1.41492,-2.001 0,-2.001 z" />
    <path
       style="fill:#d5f6ff;stroke-width:0.264583"
       id="path25"
       d="m 25.822768,107.1592 c 0.591358,-0.22786 1.188269,-0.43384 1.803936,-0.58568 1.102949,-0.23489 2.228577,-0.30099 3.351749,-0.35654 0.876038,-0.0423 1.752997,-0.051 2.629842,-0.0588 1.414865,-0.0126 1.396987,-2.01356 -0.01789,-2.00092 v 0 c -0.904025,0.008 -1.808165,0.0174 -2.711349,0.0611 -1.253747,0.0627 -2.510292,0.14233 -3.739546,0.41428 -0.717127,0.18242 -1.416723,0.41546 -2.104989,0.68726 -1.300517,0.55736 -0.512285,2.39657 0.788232,1.83921 z" />
    <path
       style="fill:#d5f6ff;stroke-width:0.264583"
       id="path35"
       d="m 142.72806,122.63084 c -1.41129,0.16992 -2.82642,0.29418 -4.24225,0.41926 -2.26669,0.26794 -4.54001,0.47029 -6.81578,0.64148 -1.41093,0.10619 -1.26077,2.10155 0.15017,1.99536 v 0 c 2.28441,-0.17202 4.56649,-0.37407 6.84173,-0.6436 1.45154,-0.12827 2.90232,-0.2565 4.34912,-0.43161 1.4007,-0.2001 1.11771,-2.18099 -0.28299,-1.98089 z" />
    <path
       style="fill:#d5f6ff;stroke-width:0.264583"
       id="path36"
       d="m 130.32228,124.664 c -0.88057,1.58331 -1.97413,3.03567 -3.09506,4.45419 -1.39688,1.71247 -2.7043,3.4969 -4.01925,5.27274 -0.65133,0.83731 -1.25502,1.71457 -1.96036,2.50845 -0.37967,0.43734 -0.74888,0.88014 -1.15528,1.29172 -0.29845,0.2783 -0.63453,0.51039 -0.95863,0.75698 -1.12586,0.85699 0.0861,2.4492 1.21197,1.59221 v 0 c 0.39876,-0.3037 0.81129,-0.59153 1.17057,-0.94331 0.43293,-0.43851 0.8295,-0.90712 1.23197,-1.3739 0.73801,-0.84126 1.3881,-1.75354 2.06792,-2.64143 1.30255,-1.7593 2.59741,-3.52731 3.98158,-5.22348 1.18644,-1.50386 2.34227,-3.04401 3.27376,-4.7224 0.68715,-1.23686 -1.06204,-2.20863 -1.74919,-0.97177 z" />
    <path
       style="fill:#d5f6ff;stroke-width:0.264583"
       id="path37"
       d="m 102.67931,142.46492 c 1.45145,0 2.9029,0 4.35436,0 1.64234,0.0105 3.28328,0.006 4.9245,-0.0554 1.52257,-0.0357 3.04113,-0.14904 4.56083,-0.24186 0.84254,-0.0464 1.68385,-0.11379 2.52423,-0.18934 1.4092,-0.12705 1.22953,-2.11996 -0.17967,-1.99292 v 0 c -0.82114,0.0742 -1.64328,0.13954 -2.46655,0.18499 -1.50415,0.0919 -3.00712,0.20448 -4.51411,0.23954 -1.61613,0.0609 -3.23198,0.0641 -4.84923,0.054 -1.45146,0 -2.90291,0 -4.35436,0 -1.41492,0 -1.41492,2.00099 0,2.00099 z" />
    <path
       style="fill:#d5f6ff;stroke-width:0.264583"
       id="path38"
       d="m 101.24294,141.30204 c -2.162013,2.20023 -4.209938,4.5038 -6.463389,6.61529 -1.069195,1.00183 -2.174296,1.96465 -3.261442,2.94698 -1.311119,1.12782 -2.613409,2.26599 -3.933359,3.38346 -2.373159,2.00913 -6.308874,5.24558 -8.701884,7.2232 -3.706614,3.06319 -7.410133,6.12849 -11.145425,9.15665 -3.087404,2.40091 -1.627965,1.30431 -4.364701,3.30784 -1.141529,0.83601 0.04077,2.45037 1.182296,1.61436 v 0 c 2.793563,-2.04664 1.308311,-0.92986 4.442539,-3.36783 3.739975,-3.03206 7.448264,-6.10114 11.159569,-9.16823 2.405404,-1.98786 6.349185,-5.23091 8.732597,-7.24908 1.332341,-1.12817 2.646793,-2.2773 3.970192,-3.41595 1.107201,-1.00122 2.232723,-1.98255 3.321603,-3.00367 2.257046,-2.11658 4.311844,-4.42179 6.476324,-6.6281 1.0005,-1.0005 -0.41442,-2.41542 -1.41492,-1.41492 z" />
    <path
       style="fill:#d5f6ff;stroke-width:0.264583"
       id="path39"
       d="m 56.88944,175.47691 c 0.988303,-0.0874 1.980718,-0.11421 2.972154,-0.14013 0.638686,-0.0163 1.277557,-0.0214 1.916425,-0.0225 0.391491,-0.0329 0.770303,0.05 1.15493,0.10615 0.165942,0.0459 0.07155,0.0204 0.28348,0.0753 1.370137,0.35317 1.869591,-1.5845 0.499454,-1.93766 v 0 c -0.305035,-0.0784 -0.140308,-0.0384 -0.494705,-0.11775 -0.48016,-0.0696 -0.958844,-0.15953 -1.446863,-0.12701 -0.655092,0.001 -1.310188,0.007 -1.965095,0.0232 -1.056828,0.0277 -2.11492,0.0562 -3.167972,0.1549 -1.403996,0.1755 -1.155801,2.16104 0.248192,1.98555 z" />
    <path
       style="fill:#d5f6ff;stroke-width:0.264583"
       id="path40"
       d="m 55.392697,166.08722 c 1.15002,-1.20595 2.524768,-2.18278 3.876519,-3.14546 0.405374,-0.28869 3.800769,-2.64272 4.137181,-2.87615 3.592727,-2.41606 6.773815,-5.36446 9.946611,-8.29251 2.428806,-2.24145 2.681076,-2.50426 5.018125,-4.74564 3.793079,-3.63377 7.421988,-7.43183 11.111928,-11.16861 1.223412,-1.20624 2.415931,-2.44084 3.368947,-3.87456 0.779106,-1.18109 -0.891219,-2.28292 -1.670325,-1.10182 v 0 c -0.86995,1.33173 -2.004891,2.44685 -3.122456,3.57043 -3.677113,3.72397 -7.293504,7.5089 -11.073188,11.13043 -2.324338,2.22944 -2.564874,2.48088 -4.982094,4.71192 -3.107245,2.86792 -6.218854,5.76073 -9.73828,8.12636 -0.379114,0.26306 -3.748794,2.59902 -4.177914,2.90518 -1.367306,0.9755 -2.75201,1.96955 -3.940503,3.16536 -0.150699,0.15162 -0.279657,0.32341 -0.419484,0.48511 -0.784857,1.17729 0.880076,2.28724 1.664933,1.10996 z" />
    <path
       style="fill:#d5f6ff;stroke-width:0.264583"
       id="path41"
       d="m 90.406232,130.35669 c 0.126404,0.0301 0.251222,0.068 0.379214,0.0904 0.852114,0.14953 1.736373,0.16516 2.597608,0.19253 1.190572,0.0378 2.179301,0.046 3.383592,0.0633 2.737421,0.0244 1.380397,0.0142 4.071074,0.0306 1.41489,0.009 1.42707,-1.99235 0.0122,-2.00096 v 0 c -2.681439,-0.0163 -1.329903,-0.006 -4.054603,-0.0305 -1.915777,-0.0274 -3.854516,0.0123 -5.756291,-0.24379 -1.342311,-0.44744 -1.975083,1.45088 -0.632772,1.89831 z" />
    <path
       style="fill:#d5f6ff;stroke-width:0.264583"
       id="path42"
       d="m 101.05849,129.33186 c 1.83622,-1.5969 3.82709,-3.00239 5.79502,-4.42963 1.61338,-1.11508 3.24987,-2.19614 4.84062,-3.34337 1.14732,-0.82805 -0.0237,-2.4506 -1.17103,-1.62256 v 0 c -1.59117,1.14926 -3.23157,2.2275 -4.84438,3.3461 -2.05276,1.48877 -4.13237,2.95384 -6.035149,4.63454 -1.0005,1.0005 0.414419,2.41542 1.414919,1.41492 z" />
    <path
       style="fill:#d5f6ff;stroke-width:0.264583"
       id="path43"
       d="m 50.318825,116.29144 c 0.886844,-0.80915 1.815574,-1.57331 2.825393,-2.22626 0.386588,-0.24997 0.788802,-0.4749 1.183206,-0.71235 2.706103,-1.46563 5.653228,-2.40183 8.606023,-3.22539 2.965891,-0.83476 6.026367,-1.24488 9.080754,-1.59373 1.360413,-0.0955 2.737995,-0.35526 4.10334,-0.20141 0.638784,0.0353 1.044475,0.41956 1.45831,0.86586 0.553614,0.56637 1.069419,1.16201 1.450985,1.85743 0.367226,0.64775 0.529151,1.36243 0.709713,2.07501 0.166529,0.66539 0.199747,1.35235 0.228846,2.03461 0.02352,0.79929 0.01749,1.59911 0.01677,2.39865 0.01288,0.65365 0.03795,1.30856 -0.234977,1.91538 -0.230756,0.65301 -0.631735,1.22281 -0.977437,1.81785 -0.350321,0.69132 -0.69397,1.38425 -1.028885,2.08336 -0.301836,0.71748 -0.677735,1.40805 -1.09448,2.06518 -0.39736,0.64454 -0.885532,1.22594 -1.314517,1.84909 -0.259469,0.49937 -0.588063,0.94696 -0.917942,1.39835 -0.329333,0.42862 -0.615948,0.88545 -0.914649,1.33528 -0.25826,0.4384 -0.570156,0.83875 -0.818885,1.2831 -0.205251,0.34375 -0.340617,0.7379 -0.579827,1.06021 -0.264358,0.32838 -0.508645,0.6723 -0.757817,1.01224 -0.331345,0.52635 -0.771908,0.96745 -1.162343,1.44839 -0.484331,0.61623 -0.953498,1.24393 -1.427721,1.86806 -0.45193,0.57792 -0.929259,1.13166 -1.354093,1.73084 -0.409022,0.56285 -0.821581,1.11611 -1.313299,1.60926 -0.450424,0.48527 -0.945811,0.92629 -1.427305,1.38015 -0.410607,0.37762 -0.799926,0.78364 -1.246905,1.1191 -0.07408,0.0602 -0.148148,0.12049 -0.222223,0.18074 -1.096365,0.89442 0.168531,2.44491 1.264899,1.55049 v 0 c 0.0588,-0.0481 0.117604,-0.0963 0.176405,-0.14446 0.494009,-0.38495 0.946603,-0.81872 1.400366,-1.24981 0.4978,-0.46926 1.00924,-0.92597 1.475504,-1.42713 0.567629,-0.57475 1.056762,-1.20901 1.52754,-1.86472 0.408604,-0.58264 0.881502,-1.11104 1.313622,-1.67552 0.46019,-0.60849 0.919144,-1.21786 1.389079,-1.81872 0.408572,-0.50759 0.874397,-0.97031 1.221523,-1.52531 0.25981,-0.35581 0.517792,-0.71283 0.790863,-1.05879 0.262186,-0.39192 0.465267,-0.81879 0.687022,-1.23431 0.20928,-0.40015 0.516994,-0.73863 0.730573,-1.13693 0.284522,-0.42851 0.554763,-0.86499 0.870707,-1.27179 0.330845,-0.46928 0.687721,-0.91953 0.94552,-1.43758 0.440952,-0.64719 0.954543,-1.2438 1.358614,-1.9163 0.451565,-0.72494 0.873456,-1.47639 1.204381,-2.2646 0.312084,-0.65147 0.632137,-1.29698 0.954677,-1.94304 0.394322,-0.67941 0.843955,-1.33413 1.105395,-2.08073 0.06067,-0.16095 0.131099,-0.31855 0.182004,-0.48285 0.218194,-0.70424 0.200594,-1.44481 0.195612,-2.17267 7.94e-4,-0.82887 0.007,-1.65805 -0.01863,-2.48664 -0.03567,-0.81945 -0.08535,-1.643 -0.288624,-2.44123 -0.224306,-0.87993 -0.447103,-1.75768 -0.900829,-2.55567 -0.471903,-0.83864 -1.072322,-1.58009 -1.749917,-2.26364 -0.776709,-0.8021 -1.553459,-1.38031 -2.704661,-1.47687 -1.512734,-0.14327 -3.027249,0.0632 -4.533596,0.20404 -3.159313,0.36154 -6.323978,0.7901 -9.391507,1.65448 -3.126663,0.87364 -6.244812,1.8729 -9.102976,3.44015 -0.432607,0.26237 -0.873583,0.51141 -1.297826,0.78709 -1.104914,0.71801 -2.122903,1.55785 -3.090699,2.44914 -1.0005,1.00049 0.41442,2.41542 1.41492,1.41492 z" />
    <path
       style="fill:#d5f6ff;stroke-width:0.264583"
       id="path44"
       d="m 35.598126,106.83942 c -2.611231,2.82973 -4.881886,5.98014 -6.863345,9.27905 -0.590659,0.98338 -1.128695,1.99743 -1.693043,2.99614 -2.006389,3.76721 -3.507982,7.77493 -4.507837,11.92236 -0.60495,2.50934 -0.691938,3.36408 -1.097393,5.89633 -0.44936,4.36994 -0.593089,8.90511 0.639955,13.1743 0.193133,0.6687 0.466721,1.31148 0.700082,1.96722 1.017714,2.24792 2.241392,4.09997 4.43289,5.34909 1.239927,0.70673 1.786972,0.76833 3.160178,1.15559 0.640672,0.0788 1.277339,0.20382 1.922017,0.23638 3.105452,0.15689 6.442184,-0.64089 9.331111,-1.73131 0.762632,-0.28785 1.496227,-0.64744 2.244341,-0.97116 1.915785,-0.95157 3.744307,-2.08066 5.363848,-3.48474 1.018484,-0.88299 1.386255,-1.34771 2.258803,-2.31862 0.943846,-1.05412 -0.546893,-2.38892 -1.490741,-1.3348 v 0 c -0.765546,0.85847 -1.122313,1.30763 -2.012408,2.08638 -1.482119,1.29672 -3.161033,2.33595 -4.917509,3.21679 -0.689223,0.30135 -1.364588,0.63662 -2.067668,0.90406 -2.616354,0.99522 -5.659837,1.75408 -8.477308,1.64595 -0.544309,-0.0209 -1.082903,-0.11895 -1.624357,-0.17843 -1.101516,-0.29297 -1.573514,-0.34538 -2.568106,-0.8828 -1.839671,-0.99405 -2.812538,-2.51852 -3.672193,-4.36965 -0.211004,-0.57966 -0.459214,-1.1471 -0.633014,-1.73898 -1.179493,-4.01679 -1.02402,-8.29494 -0.613957,-12.40973 0.389225,-2.44421 0.472651,-3.26957 1.053265,-5.69032 0.956089,-3.98622 2.393286,-7.83886 4.318513,-11.46022 0.545976,-0.96811 1.066427,-1.95107 1.637933,-2.90434 1.879817,-3.13552 4.03629,-6.11343 6.478174,-8.83527 1.074288,-0.92081 -0.227944,-2.44009 -1.302231,-1.51927 z" />
    <path
       style="fill:#d5f6ff;stroke-width:0.264583"
       id="path45"
       d="m 62.31252,144.5159 c 0.474345,0.33837 0.945822,0.68783 1.460677,0.96434 1.635117,0.87814 5.100315,2.48807 6.52903,3.15098 3.926129,1.82171 6.214274,2.83754 10.216798,4.63983 1.823167,0.81857 3.64309,1.6444 5.469501,2.45571 3.902745,1.73362 6.25353,2.7618 10.155,4.37174 3.702859,1.52799 7.442764,2.96197 11.178974,4.40549 3.93919,1.53988 7.86042,3.1287 11.85257,4.52886 2.02667,0.71081 2.83607,0.95226 4.80836,1.57697 1.34891,0.42715 1.95298,-1.48049 0.60407,-1.90764 v 0 c -1.93313,-0.61198 -2.74485,-0.8543 -4.72997,-1.55035 -3.97928,-1.39526 -7.88737,-2.97989 -11.81388,-4.51437 -3.7177,-1.43636 -7.4392,-2.86296 -11.123781,-4.38321 -3.885499,-1.60315 -6.223368,-2.6257 -10.111748,-4.35294 -1.825752,-0.81102 -3.645019,-1.63655 -5.467527,-2.45482 -4.008941,-1.80514 -6.255798,-2.80242 -10.186006,-4.62565 -1.095806,-0.50834 -4.874035,-2.267 -6.311964,-3.03185 -0.471596,-0.25084 -0.896826,-0.56593 -1.329504,-0.87389 -1.131936,-0.84896 -2.332535,0.75184 -1.2006,1.6008 z" />
    <path
       style="fill:#d5f6ff;stroke-width:0.264583"
       id="path49"
       d="m 39.755039,149.31235 c 0.177433,0.1979 0.340535,0.40966 0.5323,0.59372 2.531562,2.42975 5.576895,4.56067 8.513471,6.43596 4.879112,3.11581 6.805557,4.02141 12.032467,6.83937 6.283743,3.00999 8.43289,4.15159 14.907135,6.79921 2.421991,0.99046 4.886952,1.87241 7.330427,2.80861 1.321321,0.50608 2.037019,-1.36255 0.715698,-1.86863 v 0 c -2.416585,-0.92523 -4.854467,-1.79665 -7.249761,-2.77569 -6.403427,-2.61729 -8.542419,-3.75162 -14.754193,-6.72499 -5.151858,-2.77542 -7.045605,-3.665 -11.850587,-6.72845 -2.796831,-1.78315 -5.72989,-3.82439 -8.15763,-6.12433 -0.164743,-0.15607 -0.304538,-0.33653 -0.456809,-0.50479 -0.883893,-1.10487 -2.446411,0.14514 -1.562518,1.25001 z" />
    <path
       style="fill:#d5f6ff;stroke-width:0.264583"
       id="path50"
       d="m 172.19096,128.79996 c 0.0194,1.55784 -0.0256,3.1184 -0.23957,4.6626 -0.0735,0.52383 -0.2249,1.02318 -0.41843,1.51255 -0.505,1.32173 1.36421,2.03591 1.86921,0.71418 v 0 c 0.23755,-0.63661 0.44241,-1.27979 0.53202,-1.95744 0.21818,-1.63451 0.28357,-3.28329 0.25777,-4.93189 0,-1.41492 -2.001,-1.41492 -2.001,0 z" />
    <path
       style="fill:#d5f6ff;stroke-width:0.264583"
       id="path51"
       d="m 173.87244,120.85893 c 0.60347,0.39387 1.24488,0.719 1.89951,1.01745 0.40751,0.20487 0.79874,0.43905 1.21379,0.62837 0.64508,0.29133 1.05708,-0.62095 0.412,-0.91228 v 0 c -0.41552,-0.18519 -0.8004,-0.43057 -1.21077,-0.627 -0.62707,-0.2855 -1.24028,-0.59795 -1.8179,-0.97565 -0.61455,-0.35117 -1.11119,0.51794 -0.49663,0.86911 z" />
    <path
       style="fill:#d5f6ff;stroke-width:0.264583"
       id="path52"
       d="m 142.94427,128.30018 c 0.96083,-0.0787 1.93899,-0.0459 2.88117,0.17613 0.6721,0.15842 0.95524,0.31374 1.58737,0.58629 0.23931,0.13543 0.47861,0.27086 0.71791,0.40628 0.61724,0.34644 1.10718,-0.52646 0.48994,-0.8729 v 0 c -0.27157,-0.15132 -0.54315,-0.30263 -0.81472,-0.45395 -0.29564,-0.12517 -0.58481,-0.2669 -0.88692,-0.37552 -1.30026,-0.46752 -2.69582,-0.57848 -4.06537,-0.46322 -0.70491,0.0641 -0.61428,1.06097 0.0906,0.99689 z" />
    <path
       style="fill:#d5f6ff;stroke-width:0.264583"
       id="path53"
       d="m 15.476043,144.0075 c -1.245686,3.75945 -0.141357,7.79565 0.713261,11.51013 1.034979,3.18831 1.094422,3.70575 2.499454,6.72625 0.445016,0.95668 0.967198,1.87554 1.450797,2.8133 0.324712,0.62894 1.214165,0.16973 0.889453,-0.45921 v 0 c -0.472686,-0.91447 -0.982963,-1.81047 -1.41806,-2.74341 -1.374519,-2.94727 -1.43257,-3.45053 -2.446254,-6.56191 -0.624458,-2.7004 -0.898622,-3.45253 -1.1595,-6.10802 -0.156799,-1.59606 -0.133821,-3.23154 0.382126,-4.76291 0.292895,-0.64437 -0.618381,-1.05859 -0.911277,-0.41422 z" />
    <path
       style="fill:#d5f6ff;stroke-width:0.264583"
       id="path54"
       d="m 9.910535,155.32771 c 0.806178,2.14046 1.643184,4.27165 2.637498,6.33325 0.308371,0.63937 0.642342,1.26608 0.963514,1.89912 0.96347,1.92683 2.178513,3.70037 3.487106,5.40407 0.431379,0.56117 1.224994,-0.0489 0.793615,-0.61006 v 0 c -1.272193,-1.65357 -2.452519,-3.37571 -3.388127,-5.24709 -0.315265,-0.62079 -0.643148,-1.23533 -0.945795,-1.86237 -0.987899,-2.04678 -1.817658,-4.16344 -2.618406,-6.28868 -0.262876,-0.65719 -1.192281,-0.28543 -0.929405,0.37176 z" />
    <path
       style="fill:#d5f6ff;stroke-width:0.264583"
       id="path55"
       d="m 8.284744,164.97575 c 0.699993,1.05523 1.417051,2.09557 2.179548,3.10702 0.426197,0.56512 1.225393,-0.0376 0.799196,-0.60273 v 0 c -0.772765,-1.02421 -1.491355,-2.08286 -2.209754,-3.14511 -0.453132,-0.54376 -1.222121,0.0971 -0.76899,0.64082 z" />
    <path
       style="fill:#d5f6ff;stroke-width:0.264583"
       id="path61"
       d="m 183.64004,103.04436 c -2.98771,-2.1473 -5.4875,-4.919535 -8.03076,-7.558145 -3.86034,-4.08173 -7.34812,-8.493 -10.80275,-12.9171 -0.43565,-0.55787 -1.2246,0.0582 -0.78895,0.61608 v 0 c 3.47611,4.45136 6.98609,8.88938 10.87101,12.99571 2.6083,2.70581 5.17233,5.554095 8.25482,7.732565 0.61456,0.35117 1.11118,-0.51794 0.49663,-0.86911 z" />
    <path
       style="fill:#d5f6ff;stroke-width:0.264583"
       id="path62"
       d="m 186.41631,97.061555 c 1.95479,2.35824 3.62397,4.936365 5.3044,7.492105 0.38889,0.59141 1.22527,0.0414 0.83638,-0.54998 v 0 c -1.71763,-2.61193 -3.42185,-5.250305 -5.43297,-7.649935 -0.5005,-0.50051 -1.20832,0.20731 -0.70781,0.70781 z" />
    <path
       style="fill:#d5f6ff;stroke-width:0.264583"
       id="path70"
       d="m 115.89224,87.235125 c -3.74528,-2.91675 -6.91809,-6.47088 -9.46206,-10.47568 -0.60602,-0.95401 -1.13606,-1.9542 -1.70409,-2.9313 -0.44594,-0.86876 -0.89188,-1.73753 -1.33782,-2.60629 -0.32338,-0.62962 -1.2138,-0.1723 -0.89043,0.45733 v 0 c 0.45436,0.88414 0.90872,1.76828 1.36308,2.65242 0.58172,0.99868 1.1245,2.02108 1.74515,2.99604 2.60582,4.09335 5.85412,7.72662 9.68557,10.70828 0.56626,0.42469 1.16685,-0.37611 0.6006,-0.8008 z" />
    <path
       style="fill:#d5f6ff;stroke-width:0.264583"
       id="path71"
       d="m 100.67573,82.172945 c -1.347992,-1.51307 -2.679571,-3.05899 -3.880702,-4.69313 -1.202608,-1.63614 -2.040761,-2.97902 -3.145015,-4.67841 -0.385718,-0.59348 -1.225029,-0.048 -0.839314,0.54549 v 0 c 1.137153,1.74935 1.957541,3.06572 3.197333,4.7515 1.225061,1.66575 2.582553,3.24237 3.959882,4.78236 0.500506,0.5005 1.208316,-0.20731 0.707816,-0.70781 z" />
  </g>
  <g
     inkscape:label="Capa 1"
     inkscape:groupmode="layer"
     id="layer1"
     style="display:inline;fill:#000000">
    <path
       style="fill:#000000;stroke-width:0.264583"
       id="path26"
       d="m 148.2465,94.332233 c 0.42544,0.382164 0.82835,0.794433 1.21176,1.222119 0.43323,0.458131 0.86885,0.916162 1.33733,1.33864 0.30913,0.308401 0.65781,0.57118 0.98542,0.85855 0.31662,0.258392 0.66428,0.475109 0.98581,0.726932 0.67047,0.520067 1.40595,-0.42812 0.73548,-0.948188 v 0 c -0.3054,-0.235219 -0.62714,-0.447947 -0.93253,-0.683096 -0.32492,-0.282101 -0.66728,-0.543065 -0.97271,-0.847304 -0.43846,-0.391046 -0.83951,-0.822997 -1.24561,-1.246918 -0.51624,-0.574934 -1.04612,-1.175895 -1.72548,-1.559155 -0.80498,-0.26833 -1.18445,0.87009 -0.37947,1.13842 z" />
  </g>
  <path
     style="fill:#000000;stroke-width:0.264583"
     id="path27"
     d="m 153.76655,98.94913 c 0.83277,0 1.66555,0 2.49832,0 0.93577,-0.0069 1.86977,0.0637 2.80456,0.09804 0.76745,0.02553 1.53489,0.01619 2.30076,0.07452 0.0932,0.0078 0.18634,0.01553 0.27951,0.02328 0.8456,0.07041 0.94518,-1.125448 0.0996,-1.195861 v 0 c -0.0961,-0.008 -0.19228,-0.01601 -0.28841,-0.024 -0.78151,-0.05894 -1.56433,-0.05321 -2.34745,-0.07715 -0.94945,-0.03478 -1.89808,-0.106537 -2.84855,-0.09884 -0.83277,0 -1.66555,0 -2.49832,0 -0.84853,0 -0.84853,1.199999 0,1.199999 z" />
  <path
     style="fill:#000000;stroke-width:0.264583"
     id="path28"
     d="m 161.38351,99.484398 c 0.62919,1.050322 1.38376,2.016072 2.12275,2.989582 0.90285,1.2136 1.84622,2.39639 2.74643,3.61187 0.73719,0.94131 1.40336,1.93547 2.15616,2.86424 0.57484,0.77604 1.20289,1.50939 1.81062,2.25929 0.42837,0.53989 0.86528,1.0726 1.31228,1.59729 0.32048,0.34232 0.61186,0.70941 0.92347,1.05993 0.24097,0.23118 0.44734,0.49412 0.65078,0.75803 0.0904,0.14001 0.0374,0.0623 0.16252,0.23066 0.51005,0.67812 1.46906,-0.0432 0.95902,-0.72131 v 0 c -0.10241,-0.13346 -0.0439,-0.0538 -0.17123,-0.2421 -0.22046,-0.28586 -0.44495,-0.57112 -0.70451,-0.82286 -0.3061,-0.34389 -0.59193,-0.70467 -0.90667,-1.04064 -0.44076,-0.51716 -0.87139,-1.04229 -1.29348,-1.57467 -0.60813,-0.74994 -1.23596,-1.48371 -1.81109,-2.25987 -0.74293,-0.91391 -1.3955,-1.89644 -2.12365,-2.82232 -0.90333,-1.21898 -1.84881,-2.40603 -2.75484,-3.62309 -0.74543,-0.982 -1.49917,-1.959261 -2.14152,-3.013665 -0.53007,-0.662591 -1.46711,0.08705 -0.93704,0.749633 z" />
  <path
     style="fill:#000000;stroke-width:0.264583"
     id="path29"
     d="m 173.45446,115.32811 c 0.5006,0.35572 0.96899,0.75434 1.45717,1.12658 0.34652,0.27216 0.69359,0.55183 1.00707,0.86198 0.28178,0.29427 0.59374,0.56092 0.8697,0.86063 0.21071,0.17628 0.38847,0.38613 0.57973,0.58223 0.59524,0.60471 1.45044,-0.23709 0.85519,-0.84181 v 0 c -0.18608,-0.18633 -0.35312,-0.39363 -0.5584,-0.55999 -0.29391,-0.31114 -0.61358,-0.59766 -0.9124,-0.90404 -0.3538,-0.33669 -0.72562,-0.65734 -1.11402,-0.9538 -0.47472,-0.36074 -0.92817,-0.75033 -1.41582,-1.09365 -0.65186,-0.54321 -1.42008,0.37866 -0.76822,0.92187 z" />
  <path
     style="fill:#000000;stroke-width:0.264583"
     id="path30"
     d="m 177.39894,119.40925 c 0.1439,0.74357 0.25943,1.49235 0.40158,2.23613 0.1349,0.64986 0.25111,1.30098 0.31674,1.96164 0.0574,0.57495 0.11961,1.14843 0.15188,1.72563 0.0536,0.55816 0.1118,1.11571 0.14707,1.67541 0.003,0.0628 0.006,0.12571 0.009,0.18856 0.0424,0.84747 1.24089,0.78751 1.1985,-0.06 v 0 c -0.003,-0.0681 -0.007,-0.13623 -0.0103,-0.20434 -0.0353,-0.55688 -0.0908,-1.11188 -0.14657,-1.66702 -0.0336,-0.59457 -0.0968,-1.18544 -0.15594,-1.77768 -0.07,-0.69628 -0.18963,-1.38328 -0.33225,-2.06821 -0.14526,-0.75506 -0.26035,-1.51585 -0.40869,-2.27048 -0.18407,-0.82833 -1.3555,-0.56801 -1.17143,0.26031 z" />
  <path
     style="fill:#000000;stroke-width:0.264583"
     id="path31"
     d="m 160.4447,126.40729 c 1.19538,0.22011 2.39142,0.4343 3.5947,0.60678 1.28816,0.19995 2.59164,0.26509 3.88912,0.37692 1.29718,0.11861 2.58826,0.29691 3.88358,0.43645 1.11154,0.15406 2.2294,0.24992 3.34808,0.3331 1.00381,0.0675 2.0092,0.10578 3.01501,0.1245 0.41324,0.005 0.21447,0.003 0.5963,0.006 0.8485,0.007 0.8584,-1.19296 0.01,-1.19996 v 0 c -0.374,-0.003 -0.17936,-0.001 -0.58392,-0.006 -0.98359,-0.0182 -1.96679,-0.0557 -2.94844,-0.12142 -1.10549,-0.0819 -2.21004,-0.17721 -3.30845,-0.32949 -1.30383,-0.14033 -2.60333,-0.32012 -3.9091,-0.43893 -1.27505,-0.1097 -2.55603,-0.17336 -3.82195,-0.36922 -1.17309,-0.16784 -2.33886,-0.3775 -3.5045,-0.59032 -0.82832,-0.18407 -1.08864,0.98735 -0.26032,1.17142 z" />
  <path
     style="fill:#000000;stroke-width:0.264583"
     id="path34"
     d="m 159.81669,125.20996 c -0.6684,0.0509 -1.33389,0.13124 -2.0022,0.18333 -0.38002,0.0323 -0.75756,0.0772 -1.13433,0.13539 -0.83829,0.13145 -0.6524,1.31696 0.18588,1.18552 v 0 c 0.3459,-0.0552 0.69307,-0.0931 1.04199,-0.12456 0.68676,-0.0539 1.37076,-0.13507 2.0575,-0.18894 0.84197,-0.10525 0.69313,-1.29598 -0.14884,-1.19074 z" />
  <path
     style="fill:#000000;stroke-width:0.264583"
     id="path46"
     d="m 144.7547,121.08131 c 1.16368,0.67902 2.35942,1.30015 3.56401,1.90278 1.41885,0.70124 2.85189,1.37982 4.30765,2.00169 0.85425,0.37997 1.68565,0.80735 2.52289,1.22265 0.56135,0.29902 0.28297,0.15115 0.83513,0.44364 0.74983,0.39719 1.31154,-0.66322 0.56172,-1.06041 v 0 c -0.56032,-0.29681 -0.27244,-0.14409 -0.86361,-0.45824 -0.85768,-0.42544 -1.70949,-0.86308 -2.58507,-1.25132 -1.43393,-0.61145 -2.84442,-1.28138 -4.2419,-1.97124 -1.17081,-0.5855 -2.33267,-1.18932 -3.46482,-1.84715 -0.71955,-0.44971 -1.35555,0.56788 -0.636,1.0176 z" />
  <path
     style="fill:#000000;stroke-width:0.264583"
     id="path47"
     d="m 132.91558,124.7367 c 0.86341,-0.13397 1.73189,-0.23452 2.5999,-0.3339 1.23231,-0.0922 2.46154,-0.21919 3.69285,-0.32355 1.08856,-0.0945 2.17344,-0.22447 3.26119,-0.32714 0.55268,-0.0279 1.09795,-0.0921 1.63701,-0.21646 0.28701,-0.0693 0.58045,-0.0979 0.8742,-0.1186 0.84636,-0.0606 0.76064,-1.25755 -0.0857,-1.19693 v 0 c -0.35586,0.0259 -0.71119,0.0629 -1.05894,0.1464 -0.48705,0.11304 -0.97977,0.16526 -1.47936,0.19091 -1.08395,0.10239 -2.16507,0.23165 -3.2498,0.32612 -1.24303,0.10551 -2.48403,0.23299 -3.728,0.32705 -0.87906,0.10075 -1.75858,0.20269 -2.63303,0.33817 -0.84,0.12 -0.67029,1.30794 0.1697,1.18793 z" />
  <path
     style="fill:#000000;stroke-width:0.264583"
     id="path48"
     d="m 132.2886,123.92366 c -0.64358,1.00286 -1.25419,2.02609 -1.87292,3.04441 -1.07756,1.72876 -2.27885,3.376 -3.58874,4.93502 -1.13992,1.25891 -2.30132,2.49837 -3.47048,3.73012 -0.91653,0.9419 -1.85952,1.85717 -2.78948,2.78576 -0.60041,0.59959 0.24754,1.44869 0.84795,0.8491 v 0 c 0.93744,-0.93627 1.88841,-1.85871 2.81193,-2.80879 1.18579,-1.24958 2.3645,-2.50626 3.51919,-3.78468 1.34763,-1.60689 2.58692,-3.30179 3.69517,-5.08341 0.60999,-1.00396 1.21177,-2.01292 1.84584,-3.00189 0.47068,-0.70602 -0.52778,-1.37166 -0.99846,-0.66564 z" />
  <circle
     id="path56"
     style="fill:#000000;stroke:#000000;stroke-width:0.264583"
     cx="149.01796"
     cy="97.126556"
     r="0.0054282197" />
  <path
     style="fill:#000000;stroke-width:0.264583"
     id="path57"
     d="m 148.93874,99.072535 c 0,-0.158838 0.01,-0.317955 0,-0.476507 -0.0683,-1.141354 -0.2728,-2.271199 -0.48162,-3.393263 -0.26211,-1.408477 -0.28511,-1.460394 -0.59669,-2.892205 -0.12002,-0.527471 -0.23437,-1.056264 -0.36005,-1.582417 -0.30306,-1.268812 -0.54535,-2.20956 -0.93141,-3.464751 -0.58669,-1.907455 -1.28024,-3.780414 -1.96484,-5.654056 -0.84476,-2.242618 -1.68997,-4.485724 -2.41107,-6.771994 -0.34238,-1.085519 -0.62385,-2.087277 -0.93879,-3.180032 -0.69418,-2.422295 -1.31345,-4.865143 -2.00128,-7.289086 -0.3212,-1.116089 -0.66584,-2.225945 -1.05975,-3.318639 -0.18215,-0.462603 -0.37016,-0.921489 -0.58208,-1.371143 -0.36177,-0.767537 -1.44724,-0.255905 -1.08546,0.511633 v 0 c 0.19589,0.415555 0.36928,0.839608 0.53877,1.266764 0.38502,1.066242 0.72006,2.149912 1.03411,3.238997 0.6884,2.425486 1.30765,4.870054 2.00263,7.293827 0.32234,1.118169 0.60114,2.110981 0.95183,3.222318 0.72536,2.29869 1.57437,4.55439 2.42399,6.809216 0.67497,1.846975 1.35941,3.693234 1.93853,5.57334 0.37962,1.232442 0.61686,2.153097 0.91473,3.399853 0.12484,0.522505 0.23841,1.047639 0.35761,1.571456 0.31008,1.423527 0.32637,1.445368 0.58774,2.846882 0.19588,1.050393 0.39792,2.114344 0.4631,3.1833 0.01,0.158541 0,0.317669 0,0.476507 0,0.848526 1.2,0.848526 1.2,0 z" />
  <path
     style="fill:#000000;stroke-width:0.264583"
     id="path58"
     d="m 136.31429,60.030449 c -0.16383,2.526358 -0.82739,4.977077 -1.48595,7.409439 -0.68601,2.274846 -0.34523,1.173065 -1.01971,3.306162 -0.25579,0.809056 0.88839,1.1708 1.14418,0.361747 v 0 c 0.68264,-2.1594 0.33704,-1.041557 1.03386,-3.354436 0.67614,-2.499603 1.3533,-5.018521 1.52269,-7.614271 0.0768,-0.845042 -1.11825,-0.953686 -1.19507,-0.108641 z" />
  <path
     style="fill:#000000;stroke-width:0.264583"
     id="path63"
     d="m 134.50552,70.762446 c -1.58968,-1.485926 -3.47566,-2.617623 -5.30961,-3.77181 -2.15847,-1.359818 -4.36816,-2.635075 -6.5681,-3.925792 -0.73187,-0.429384 -1.33911,0.605632 -0.60725,1.035016 v 0 c 2.18924,1.284409 4.38824,2.553327 6.53625,3.90643 1.75846,1.106339 3.56902,2.188347 5.10018,3.604686 0.6,0.600001 1.44853,-0.248529 0.84853,-0.84853 z" />
  <path
     style="fill:#000000;stroke-width:0.264583"
     id="path64"
     d="m 121.38552,64.056667 c -0.0322,2.190877 0.21642,4.373885 0.40537,6.553578 0.22129,2.62378 0.39662,5.251246 0.50489,7.882125 0.0349,0.84781 1.2339,0.798441 1.19899,-0.04937 v 0 c -0.10913,-2.648988 -0.28543,-5.294556 -0.50836,-7.936397 -0.18598,-2.145218 -0.43245,-4.293709 -0.40089,-6.449938 0,-0.84853 -1.2,-0.84853 -1.2,0 z" />
  <path
     style="fill:#000000;stroke-width:0.264583"
     id="path65"
     d="m 122.26386,78.803525 c 0.53944,1.196655 1.31354,2.276777 2.05889,3.351769 1.14335,1.689764 2.41566,3.286744 3.58744,4.955738 0.77607,1.169543 1.62241,2.290104 2.42475,3.440933 0.78627,1.115184 1.5519,2.246005 2.29758,3.388801 0.68791,1.043464 1.3382,2.110251 1.99628,3.172503 0.56397,0.892071 1.15972,1.761191 1.80892,2.593178 0.59254,0.712323 1.203,1.409673 1.79875,2.119653 0.32618,0.41155 0.62257,0.84553 0.9199,1.27808 0.15276,0.26855 0.23881,0.56259 0.38462,0.83493 0.41639,0.73933 1.46197,0.15047 1.04558,-0.58887 v 0 c -0.18594,-0.2848 -0.21639,-0.65845 -0.44153,-0.92616 -0.31932,-0.46388 -0.63713,-0.92967 -0.98943,-1.36946 -0.58688,-0.69901 -1.18727,-1.38641 -1.77211,-2.086757 -0.62319,-0.797327 -1.19305,-1.631646 -1.7346,-2.486573 -0.66307,-1.070271 -1.31847,-2.145011 -2.01149,-3.196418 -0.75278,-1.152996 -1.52492,-2.294374 -2.31841,-3.419663 -0.80412,-1.151141 -1.64925,-2.273995 -2.42689,-3.44398 -1.17134,-1.666423 -2.44001,-3.262993 -3.58334,-4.94986 -0.68195,-0.9828 -1.38144,-1.969227 -1.90649,-3.047317 -0.26833,-0.804984 -1.40675,-0.425511 -1.13842,0.379473 z" />
  <path
     style="fill:#000000;stroke-width:0.264583"
     id="path66"
     d="m 133.49412,71.821447 c 0.18371,1.388046 0.51819,2.748102 0.84219,4.108317 0.28952,1.217353 0.70239,2.399078 1.06061,3.596471 0.30224,0.957588 0.54275,1.933271 0.78712,2.906829 0.31183,1.317757 0.65969,2.627167 1.06051,3.920643 0.40755,1.330026 0.89261,2.633268 1.37106,3.938823 0.40533,1.020059 0.81425,2.040588 1.17229,3.07852 0.12289,0.36395 0.26969,0.718436 0.41582,1.07339 0.32304,0.784633 1.43267,0.327793 1.10964,-0.45684 v 0 c -0.13731,-0.33352 -0.27604,-0.666231 -0.39122,-1.00834 -0.36132,-1.044713 -0.77042,-2.073119 -1.17981,-3.099644 -0.4715,-1.286587 -0.95012,-2.570673 -1.35166,-3.881419 -0.39506,-1.27231 -0.73555,-2.561032 -1.04275,-3.857318 -0.24881,-0.991002 -0.49397,-1.984073 -0.80144,-2.958894 -0.3523,-1.175345 -0.75679,-2.335694 -1.04284,-3.530308 -0.31082,-1.304579 -0.63241,-2.608525 -0.81445,-3.938874 -0.0768,-0.845044 -1.2719,-0.736401 -1.19507,0.108644 z" />
  <path
     style="fill:#000000;stroke-width:0.264583"
     id="path67"
     d="m 121.23414,102.84137 c 0.92311,-0.62578 1.90454,-1.15554 2.89446,-1.66615 1.11494,-0.5159 2.2008,-1.08262 3.24502,-1.729549 1.01146,-0.668078 2.00268,-1.364961 3.00931,-2.04053 0.88429,-0.632523 1.80349,-1.21417 2.73765,-1.76971 0.1241,-0.06908 0.2482,-0.138166 0.3723,-0.207249 0.74117,-0.41312 0.15693,-1.461291 -0.58424,-1.04817 v 0 c -0.13385,0.0747 -0.26771,0.149402 -0.40156,0.224104 -0.95275,0.566926 -1.89074,1.159677 -2.79293,1.804663 -0.99461,0.667697 -1.97472,1.355357 -2.97308,2.017146 -1.01676,0.631518 -2.0772,1.178782 -3.16278,1.682925 -1.01238,0.52269 -2.01714,1.06365 -2.96155,1.70353 -0.7276,0.43656 -0.11021,1.46556 0.6174,1.02899 z" />
  <path
     style="fill:#000000;stroke-width:0.264583"
     id="path68"
     d="m 76.427586,85.781932 c 2.651416,0.912032 5.24212,1.998858 7.833928,3.066732 4.238924,1.777395 8.495155,3.513728 12.78485,5.165024 3.092336,1.114825 6.212016,2.147523 9.272236,3.349538 2.1524,0.831524 4.26843,1.752909 6.37797,2.686664 1.59152,0.67003 3.12414,1.46733 4.6588,2.25604 0.87913,0.43388 1.76458,0.85294 2.62941,1.31464 0.76318,0.38515 1.55782,0.70176 2.32444,1.08019 0.12605,0.0618 0.2521,0.12369 0.37815,0.18554 0.76178,0.37377 1.29036,-0.70354 0.52859,-1.07731 v 0 c -0.1254,-0.0615 -0.2508,-0.12305 -0.3762,-0.18458 -0.75544,-0.37187 -1.53601,-0.68782 -2.28984,-1.06243 -0.87037,-0.46466 -1.76093,-0.88742 -2.64603,-1.32335 -1.55531,-0.79932 -3.10888,-1.606618 -4.72162,-2.286049 -2.1251,-0.940613 -4.2568,-1.868586 -6.42503,-2.706312 -3.0629,-1.2026 -6.18427,-2.238534 -9.279799,-3.35248 -4.281027,-1.647796 -8.528455,-3.380973 -12.758803,-5.154644 -2.633319,-1.084895 -5.265232,-2.190845 -7.961389,-3.111042 -0.81588,-0.233109 -1.145546,0.92072 -0.329663,1.153829 z" />
  <path
     style="fill:#000000;stroke-width:0.264583"
     id="path69"
     d="m 73.626535,82.91818 c 0.525901,0.703643 1.058333,1.402014 1.602663,2.09165 0.624988,0.784672 1.2691,1.553192 1.90823,2.326119 0.204251,0.260305 0.450588,0.477197 0.701879,0.68962 0.651235,0.54396 1.420511,-0.377025 0.769276,-0.920985 v 0 c -0.197649,-0.162303 -0.388591,-0.33034 -0.546566,-0.533572 -0.633658,-0.765537 -1.271338,-1.527413 -1.890889,-2.304664 -0.532458,-0.67456 -1.053619,-1.357455 -1.568112,-2.045655 -0.493199,-0.690475 -1.469678,0.007 -0.976481,0.697487 z" />
  <path
     style="fill:#000000;stroke-width:0.264583"
     id="path73"
     d="m 67.050536,79.445577 c 0.662651,0.765058 1.311002,1.539597 2.003676,2.278488 0.828558,0.825696 1.662327,1.653852 2.571866,2.391349 0.08239,0.06332 0.164783,0.126643 0.247174,0.189966 0.673103,0.516657 1.403768,-0.43525 0.730665,-0.951908 v 0 c -0.07451,-0.05711 -0.149024,-0.114231 -0.223536,-0.171346 -0.869161,-0.699823 -1.658188,-1.496076 -2.451065,-2.279156 -0.702106,-0.747588 -1.352751,-1.536935 -2.030254,-2.305923 -0.600001,-0.599998 -1.448527,0.248529 -0.848526,0.84853 z" />
  <path
     style="fill:#000000;stroke-width:0.264583"
     id="path74"
     d="m 62.287038,77.827882 c 0.916366,1.59521 2.086417,3.03307 3.248634,4.453414 1.306975,1.499206 2.595149,3.025516 4.032379,4.404008 0.260771,0.250113 0.531627,0.489495 0.797444,0.734245 0.608727,0.556509 1.260348,1.060212 1.922457,1.550287 0.682374,0.504346 1.395627,-0.460677 0.713253,-0.965023 v 0 c -0.628309,-0.463666 -1.245785,-0.941388 -1.823275,-1.468411 -0.25426,-0.233685 -0.513387,-0.46218 -0.762778,-0.701051 -1.408962,-1.349525 -2.66931,-2.846504 -3.950907,-4.314155 -1.106694,-1.351484 -2.219753,-2.719105 -3.103893,-4.229968 -0.379473,-0.758947 -1.452787,-0.22229 -1.073314,0.536654 z" />
  <path
     style="fill:#000000;stroke-width:0.264583"
     id="path75"
     d="m 63.155824,85.387568 c -1.24787,0.07533 -2.498402,0.09235 -3.74813,0.111292 -1.960068,0.02387 -3.920326,0.02368 -5.880507,0.02511 -1.772391,0.01373 -3.543779,-0.05856 -5.315411,-0.09844 -1.045866,-0.0067 -2.090721,0.02077 -3.133299,0.102851 -0.845894,0.06679 -0.751432,1.263071 0.09446,1.196277 v 0 c 1.002154,-0.07939 2.006502,-0.104839 3.011842,-0.09943 1.780924,0.04006 3.561601,0.112649 5.343289,0.09874 1.965955,-0.0013 3.931987,-0.0013 5.897825,-0.02527 1.243597,-0.01887 2.488298,-0.03396 3.729929,-0.111154 0.848527,0 0.848527,-1.199999 0,-1.199999 z" />
  <path
     style="fill:#000000;stroke-width:0.264583"
     id="path76"
     d="m 45.444095,85.274006 c -1.396027,0.234408 -2.765619,0.590365 -4.118729,1.001668 -1.982079,0.702759 -3.692748,1.957117 -5.407295,3.142313 -1.813595,1.277035 -3.58712,2.609289 -5.393923,3.89586 -1.611135,1.143434 -3.183459,2.336604 -4.695691,3.607937 -1.479618,1.280978 -2.920929,2.603559 -4.307089,3.984956 -0.613618,0.6263 -1.203338,1.28024 -1.846235,1.8773 -0.620043,0.57926 0.199159,1.45613 0.819202,0.87687 v 0 c 0.649248,-0.6094 1.255189,-1.26467 1.874158,-1.90424 1.36206,-1.35774 2.778749,-2.657174 4.232397,-3.916546 1.486967,-1.25136 3.034851,-2.423528 4.619345,-3.548801 1.802167,-1.283467 3.571592,-2.611879 5.380233,-3.886252 1.612464,-1.114849 3.217691,-2.30295 5.07437,-2.981413 1.294069,-0.394557 2.604061,-0.734573 3.938963,-0.961712 0.839999,-0.12 0.670293,-1.307939 -0.169706,-1.18794 z" />
  <path
     style="fill:#000000;stroke-width:0.264583"
     id="path77"
     d="m 18.023402,104.12906 c 2.426081,0.61682 4.932523,0.87537 7.416321,1.13997 2.145849,0.17886 4.306055,0.33092 6.46061,0.21536 0.953193,-0.0511 1.859489,-0.16124 2.782271,-0.3981 0.313439,-0.0804 0.61454,-0.20299 0.921811,-0.30449 0.838891,-0.40525 0.463119,-0.18275 1.139891,-0.64578 0.694211,-0.48792 0.0042,-1.46968 -0.69003,-0.98176 v 0 c -0.46904,0.34292 -0.197406,0.17058 -0.831522,0.48985 -0.259956,0.0888 -0.514181,0.19659 -0.779873,0.26637 -0.851143,0.22354 -1.683036,0.32594 -2.564492,0.37411 -2.104819,0.11502 -4.215334,-0.035 -6.311717,-0.20883 -2.398886,-0.25487 -4.816902,-0.50675 -7.163796,-1.08512 -0.804985,-0.26833 -1.184458,0.87009 -0.379474,1.13842 z" />
  <path
     style="fill:#000000;stroke-width:0.264583"
     id="path78"
     d="m 34.741254,108.44306 c -1.164891,1.66488 -2.533917,3.16608 -3.875524,4.68694 -2.141103,2.32993 -3.927382,4.94487 -5.432725,7.72328 -0.319506,0.5897 -0.614332,1.19245 -0.921498,1.78868 -1.760629,3.57586 -2.743485,7.44414 -3.574543,11.32112 -0.380262,2.01568 -0.789501,4.03948 -0.900479,6.09307 -0.0787,1.45626 -0.02352,1.72082 0.05608,3.19536 0.210164,2.13835 0.647798,4.27474 1.540691,6.24102 0.601998,1.32568 0.790695,1.48442 1.617114,2.68158 1.301882,1.58658 2.865146,2.98113 4.787745,3.766 1.276236,0.521 2.013101,0.60695 3.366103,0.88766 2.90476,0.43975 5.907786,0.57607 8.802659,-0.0305 0.476305,-0.0998 0.940585,-0.25019 1.410877,-0.37529 1.346303,-0.44994 2.569861,-1.12714 3.63215,-2.07272 1.002141,-0.89204 1.802069,-1.96875 2.608212,-3.03133 0.195117,-0.27843 0.390236,-0.55686 0.585353,-0.83529 0.486675,-0.69509 -0.496329,-1.38335 -0.983003,-0.68826 v 0 c -0.18623,0.26623 -0.37246,0.53246 -0.558689,0.79869 -0.742802,0.98098 -1.477275,1.98132 -2.393461,2.81276 -0.932809,0.84653 -2.01133,1.45193 -3.201619,1.85717 -0.429565,0.11641 -0.853345,0.25678 -1.288693,0.34923 -2.751894,0.58443 -5.609312,0.45181 -8.372282,0.0401 -1.206608,-0.24529 -1.934842,-0.33396 -3.071246,-0.78568 -1.742371,-0.69259 -3.154633,-1.95393 -4.338568,-3.37717 -0.758045,-1.08367 -0.931937,-1.22817 -1.485718,-2.43565 -0.846942,-1.84671 -1.257535,-3.8575 -1.459437,-5.86823 -0.07784,-1.38758 -0.131462,-1.65191 -0.05894,-3.02367 0.105984,-2.00468 0.508856,-3.97983 0.878529,-5.94749 0.807892,-3.77366 1.758615,-7.54074 3.468065,-11.02318 0.2992,-0.58152 0.586376,-1.16939 0.897598,-1.74456 1.464735,-2.70701 3.202151,-5.25499 5.289626,-7.52286 1.362602,-1.54466 2.751659,-3.07054 3.935624,-4.76078 0.509117,-0.67882 -0.450884,-1.39882 -0.960001,-0.72 z" />
  <path
     style="fill:#000000;stroke-width:0.264583"
     id="path79"
     d="m 41.133619,146.79415 c 1.30886,0.47187 2.609218,0.9667 3.880771,1.53194 1.652805,0.7634 2.928874,2.10555 4.160179,3.40924 1.360532,1.49971 2.478442,3.19634 3.321259,5.03718 0.450355,0.98364 0.598736,1.47887 0.945576,2.4743 0.363556,1.23602 0.205874,0.64824 0.481867,1.76096 0.204837,0.82343 1.369348,0.53375 1.164508,-0.28968 v 0 c -0.294717,-1.18148 -0.126598,-0.55833 -0.513496,-1.86698 -0.370461,-1.05816 -0.524161,-1.57105 -1.006612,-2.61819 -0.895967,-1.94466 -2.081414,-3.73729 -3.521348,-5.32224 -1.343231,-1.41783 -2.740139,-2.85993 -4.545026,-3.68136 -1.297339,-0.57522 -2.622367,-1.08258 -3.957587,-1.56292 -0.797441,-0.28998 -1.207532,0.83777 -0.410091,1.12775 z" />
  <path
     style="fill:#000000;stroke-width:0.264583"
     id="path80"
     d="m 50.119396,112.81516 c 1.489546,-1.1769 3.239262,-1.99935 5.002718,-2.67718 0.730035,-0.28061 1.475652,-0.51886 2.213477,-0.77829 0.859872,-0.25277 1.71254,-0.53148 2.579614,-0.75831 1.961163,-0.51305 4.041592,-0.93323 6.040493,-1.25965 2.23956,-0.36572 3.758948,-0.56191 6.0247,-0.61859 0.919969,-0.023 1.840259,0.0308 2.76039,0.0462 0.810667,0.13714 1.632534,0.21949 2.432002,0.41143 1.814356,0.43558 3.638489,1.22777 4.977844,2.56614 0.933117,0.93244 1.015386,1.36843 1.570474,2.54023 0.149315,0.53566 0.336061,1.06227 0.44795,1.60698 0.537113,2.61476 0.416603,5.45495 2.65e-4,8.07675 -0.115057,0.72463 -0.286359,1.4392 -0.429535,2.1588 -0.666163,2.76339 -1.831332,5.35638 -3.333642,7.7617 -0.641646,1.02732 -1.548701,2.29296 -2.246344,3.28743 -1.275561,1.68987 -2.378379,3.57366 -3.97338,4.99876 -0.759875,0.67893 -1.513594,1.12836 -2.361396,1.68493 -1.480791,0.91583 -0.76187,0.48866 -2.153308,1.2873 -0.735807,0.42259 -0.138158,1.46318 0.597646,1.04058 v 0 c 1.434822,-0.82459 0.695192,-0.38458 2.215554,-1.32561 0.978202,-0.64581 1.68565,-1.06132 2.563853,-1.85272 1.63586,-1.47418 2.785501,-3.39874 4.093469,-5.14417 0.724749,-1.03352 1.635715,-2.30388 2.300189,-3.37143 1.569101,-2.52092 2.782306,-5.23909 3.474485,-8.13359 0.148071,-0.75067 0.325379,-1.49616 0.444217,-2.25201 0.43275,-2.7524 0.550518,-5.8061 -0.03798,-8.54528 -0.131434,-0.61176 -0.34852,-1.20193 -0.52278,-1.80289 -0.69071,-1.39138 -0.773226,-1.8549 -1.904399,-2.95618 -1.500076,-1.46043 -3.514458,-2.33736 -5.526257,-2.80945 -0.858199,-0.20139 -1.739831,-0.28503 -2.609749,-0.42754 -0.952138,-0.0146 -1.904492,-0.0688 -2.856418,-0.0439 -2.31163,0.0606 -3.884909,0.26271 -6.166353,0.63618 -2.04394,0.33459 -4.155992,0.76259 -6.16083,1.28842 -0.887201,0.2327 -1.759638,0.51843 -2.639457,0.77764 -0.761574,0.26865 -1.5313,0.51522 -2.284717,0.80596 -1.864664,0.71957 -3.70835,1.59799 -5.28248,2.84432 -0.662591,0.53007 0.08705,1.46711 0.749633,0.93704 z" />
  <path
     style="fill:#000000;stroke-width:0.264583"
     id="path81"
     d="m 67.731547,143.39267 c 1.794435,1.38663 3.697462,2.63973 5.66172,3.77277 0.578589,0.33374 1.168673,0.64715 1.75301,0.97073 4.795634,2.54348 9.868432,4.51247 14.898296,6.53507 3.936945,1.60566 7.855294,3.25556 11.817027,4.79958 1.86214,0.73336 0.96802,0.38246 2.68217,1.05317 0.7902,0.30919 1.22745,-0.80832 0.43725,-1.1175 v 0 c -1.71301,-0.67026 -0.81838,-0.31917 -2.68368,-1.05376 -3.957775,-1.54237 -7.871987,-3.19108 -11.805071,-4.79485 -4.984178,-2.00418 -10.011412,-3.95406 -14.764871,-6.47161 -0.571855,-0.31637 -1.149329,-0.62279 -1.715561,-0.94912 -1.911694,-1.10174 -3.763627,-2.32032 -5.51207,-3.66635 -0.651857,-0.54321 -1.420077,0.37866 -0.76822,0.92187 z" />
  <path
     style="fill:#000000;stroke-width:0.264583"
     id="path82"
     d="m 104.88277,160.76523 c 0.0545,0.15202 0.10273,0.30641 0.16339,0.45606 0.26202,0.6464 0.57396,1.30725 0.86509,1.93786 0.45267,0.98054 0.91757,1.95494 1.38131,2.93026 0.11233,0.24719 0.22465,0.49438 0.33698,0.74157 0.35112,0.77247 1.44356,0.2759 1.09244,-0.49657 v 0 c -0.11523,-0.25342 -0.23046,-0.50686 -0.34569,-0.76028 -0.80577,-1.69468 -1.64284,-3.38036 -2.33581,-5.12464 -0.22326,-0.81863 -1.38097,-0.50289 -1.15771,0.31574 z" />
  <path
     style="fill:#000000;stroke-width:0.264583"
     id="path83"
     d="m 59.475917,149.57221 c 2.234853,1.99925 4.708644,3.71658 7.162305,5.43306 3.10506,2.20256 6.469147,3.98581 9.875528,5.66747 2.382393,1.2248 4.867341,2.2195 7.378022,3.1442 2.521366,0.95846 5.106025,1.72819 7.686805,2.50613 0.808612,0.24633 1.623555,0.47009 2.44122,0.68391 0.820952,0.21457 1.124395,-0.94643 0.303443,-1.161 v 0 c -0.803354,-0.20985 -1.603912,-0.42991 -2.398331,-0.67184 -2.557775,-0.77101 -5.119645,-1.5331 -7.61846,-2.48328 -2.471105,-0.90985 -4.917094,-1.88798 -7.26154,-3.09416 -3.352065,-1.65446 -6.663494,-3.4072 -9.718868,-5.57474 -2.396731,-1.67632 -4.811641,-3.3539 -7.001595,-5.29828 -0.600001,-0.6 -1.44853,0.24852 -0.848529,0.84853 z" />
  <path
     style="fill:#000000;stroke-width:0.264583"
     id="path84"
     d="m 92.956101,165.12564 c 0.749964,1.56172 1.393629,3.16947 2.029095,4.7804 0.458152,1.2466 0.999638,2.4598 1.485178,3.69546 0.310483,0.78968 1.427265,0.35059 1.116782,-0.43909 v 0 c -0.486198,-1.2359 -1.026798,-2.44993 -1.485683,-3.69674 -0.639802,-1.6217 -1.287423,-3.24053 -2.042398,-4.81273 -0.334251,-0.77992 -1.437225,-0.30722 -1.102974,0.4727 z" />
  <path
     style="fill:#000000;stroke-width:0.264583"
     id="path85"
     d="m 104.08112,140.2449 c 1.33773,0.004 2.67478,-0.0524 4.01209,-0.082 2.21968,-0.0428 4.43985,-0.0472 6.65987,-0.0521 2.47846,-0.004 4.95694,-0.003 7.4354,-0.003 1.31144,2.1e-4 0.67816,1e-4 1.89985,2.7e-4 0.84853,1.4e-4 0.84873,-1.19986 2e-4,-1.20001 v 0 c -1.22171,-2e-4 -0.58841,-1e-4 -1.89989,-2.6e-4 -2.47939,-2.7e-4 -4.95878,-0.001 -7.43817,0.003 -2.228,0.005 -4.45616,0.009 -6.68382,0.0524 -1.32847,0.0294 -2.65666,0.0853 -3.98553,0.0817 -0.84853,0 -0.84853,1.2 0,1.2 z" />
  <path
     style="fill:#000000;stroke-width:0.264583"
     id="path86"
     d="m 91.399123,129.92096 c 1.051407,0.004 2.102895,-0.0121 3.153995,0.016 1.032775,0.0414 2.061186,0.14783 3.093371,0.20214 0.530286,0.0134 1.059624,0.049 1.589032,0.0805 0.847029,0.0504 0.918269,-1.14752 0.07124,-1.19789 v 0 c -0.532196,-0.0316 -1.064329,-0.0675 -1.597401,-0.081 -1.042572,-0.0545 -2.081242,-0.16374 -3.124539,-0.20336 -1.06169,-0.0277 -2.123707,-0.0136 -3.185697,-0.0165 -0.848529,0 -0.848529,1.2 0,1.2 z" />
  <path
     style="fill:#000000;stroke-width:0.264583"
     id="path87"
     d="m 100.02777,129.4528 c 1.38962,-1.02489 2.76069,-2.07464 4.14066,-3.11246 1.78115,-1.32127 3.53647,-2.67693 5.21796,-4.12329 0.64314,-0.55351 -0.13963,-1.46305 -0.78277,-0.90954 v 0 c -1.66077,1.43009 -3.39704,2.76749 -5.15645,4.07379 -1.38953,1.04502 -2.77055,2.10142 -4.169041,3.13446 -0.662588,0.53007 0.08704,1.46711 0.749641,0.93704 z" />
  <path
     style="fill:#000000;stroke-width:0.264583"
     id="path88"
     d="m 63.420307,174.08852 c 1.459836,-0.59346 2.838907,-1.37009 4.220038,-2.12426 3.020353,-1.61256 5.729282,-3.72218 8.498239,-5.71867 2.383475,-1.72088 4.762952,-3.45291 7.027672,-5.32939 1.447535,-1.19938 1.749377,-1.49985 3.173187,-2.78425 3.202303,-2.99652 6.25955,-6.14344 9.325121,-9.27839 1.666451,-1.62895 3.251946,-3.33467 4.813016,-5.06348 0.69054,-0.77233 1.32687,-1.58977 1.94708,-2.41883 0.42682,-0.56053 0.83732,-1.13333 1.25064,-1.70384 0.0493,-0.0733 0.0987,-0.14665 0.14797,-0.21996 0.47258,-0.70475 -0.52409,-1.37308 -0.99666,-0.66833 v 0 c -0.041,0.0614 -0.0821,0.12286 -0.12311,0.18429 -0.40974,0.56563 -0.81665,1.13355 -1.23987,1.68921 -0.59774,0.79973 -1.21125,1.58809 -1.87669,2.33324 -1.550384,1.71705 -3.125023,3.41111 -4.780343,5.02872 -3.048093,3.11708 -6.087827,6.24612 -9.271037,9.22643 -1.401352,1.26471 -1.698183,1.56037 -3.122951,2.74137 -2.247607,1.86307 -4.610153,3.58149 -6.975848,5.28984 -2.728428,1.96728 -5.396217,4.04859 -8.371605,5.63888 -1.352372,0.73873 -2.702266,1.50054 -4.132217,2.08085 -0.775393,0.34462 -0.288028,1.44119 0.487368,1.09657 z" />
  <path
     style="fill:#000000;stroke-width:0.264583"
     id="path89"
     d="m 53.373922,164.85911 c 0.937228,-0.66255 1.921181,-1.25488 2.871329,-1.89822 1.122365,-0.75994 1.526471,-1.06641 2.649204,-1.87874 3.572291,-2.5477 6.947633,-5.35111 10.303177,-8.17351 3.437789,-2.84419 6.825681,-5.7464 10.187778,-8.67937 1.790367,-1.56541 3.583237,-3.13277 5.25635,-4.82484 0.855163,-0.86485 1.198497,-1.25303 2.010865,-2.13555 1.308765,-1.48309 2.619637,-2.96478 3.91083,-4.46317 0.833639,-0.92393 1.503789,-1.96696 2.171526,-3.01112 0.457097,-0.71489 -0.553905,-1.36133 -1.011002,-0.64644 v 0 c -0.636942,0.99629 -1.273014,1.99357 -2.069642,2.8743 -1.282364,1.4887 -2.585162,2.96005 -3.884687,4.43381 -0.796324,0.86544 -1.132575,1.24574 -1.970283,2.09355 -1.65539,1.67536 -3.431141,3.22542 -5.202812,4.77518 -3.356657,2.92825 -6.739096,5.82575 -10.171361,8.66531 -3.333181,2.80368 -6.6856,5.58904 -10.234226,8.11969 -1.095351,0.79274 -1.510512,1.10704 -2.605135,1.84832 -0.965655,0.65395 -1.966121,1.25547 -2.917717,1.93032 -0.686233,0.49908 0.01958,1.46956 0.705806,0.97048 z" />
  <path
     style="fill:#000000;stroke-width:0.264583"
     id="path90"
     d="m 54.363746,173.61157 c 1.449242,0.15979 2.901254,0.29555 4.354589,0.41222 1.319941,0.091 2.641899,0.15185 3.963983,0.20198 0.149804,0.005 0.299609,0.0101 0.449416,0.0152 0.848042,0.0287 0.8886,-1.17064 0.04056,-1.19931 v 0 c -0.148175,-0.005 -0.296347,-0.01 -0.444519,-0.015 -1.305229,-0.0495 -2.610329,-0.10949 -3.91346,-0.199 -1.432428,-0.11488 -2.863482,-0.24904 -4.29197,-0.40553 -0.841084,-0.11215 -0.999681,1.07733 -0.158597,1.18947 z" />
  <path
     style="fill:#000000;stroke-width:0.264583"
     id="path91"
     d="m 147.13926,113.62094 c 0.71411,0.56221 1.47092,1.06493 2.22465,1.57153 0.63459,0.42891 1.29047,0.82522 1.95342,1.20835 0.61231,0.35367 1.11247,-0.51226 0.50016,-0.86593 v 0 c -0.64351,-0.37148 -1.27989,-0.75625 -1.89575,-1.17238 -0.73942,-0.49698 -1.48221,-0.98964 -2.18248,-1.54157 -0.56568,-0.42426 -1.16568,0.37574 -0.6,0.8 z" />
  <path
     style="fill:#000000;stroke-width:0.264583"
     id="path92"
     d="m 146.02705,116.70582 c 0.55812,0.37388 1.14598,0.69482 1.73771,1.01116 0.94733,0.48922 1.91445,0.93917 2.87889,1.3934 0.65188,0.30615 1.30263,0.61798 1.97977,0.86473 0.66482,0.24088 1.00548,-0.6993 0.34066,-0.94019 v 0 c -0.64904,-0.23359 -1.26929,-0.53911 -1.89434,-0.82922 -0.94914,-0.44703 -1.90092,-0.88979 -2.83353,-1.37061 -0.58354,-0.31196 -1.16204,-0.62973 -1.71302,-0.99751 -0.61394,-0.35082 -1.11008,0.51742 -0.49614,0.86824 z" />
  <path
     style="fill:#000000;stroke-width:0.264583"
     id="path94"
     d="m 152.63001,103.2325 c 0.54928,0.38483 1.09438,0.77458 1.62725,1.182 0.81979,0.59791 1.54278,1.31459 2.27666,2.012 0.70158,0.66024 1.32336,1.39393 1.92061,2.14762 0.68169,0.86917 1.3361,1.75908 1.98259,2.65464 0.6824,0.9663 1.51503,1.81052 2.34346,2.64986 0.62472,0.61055 1.35173,1.09863 2.09586,1.54978 0.47764,0.29019 1.01667,0.42513 1.54729,0.57834 0.39368,0.10551 0.78807,0.20925 1.19061,0.27482 0.0617,0.007 0.1235,0.0146 0.18525,0.0219 0.5619,0.0654 0.65434,-0.72927 0.0924,-0.79464 v 0 c -0.0502,-0.006 -0.10041,-0.0114 -0.15062,-0.0172 -0.37085,-0.0588 -0.7331,-0.15848 -1.09592,-0.25363 -0.46301,-0.13347 -0.93593,-0.24414 -1.35467,-0.49401 -0.68813,-0.41612 -1.36164,-0.8653 -1.94087,-1.42743 -0.79966,-0.81017 -1.60547,-1.62341 -2.26421,-2.55618 -0.6536,-0.90518 -1.31508,-1.80475 -2.00426,-2.68326 -0.62069,-0.78297 -1.2677,-1.54453 -1.99647,-2.23062 -0.75466,-0.71714 -1.49915,-1.45267 -2.34197,-2.06771 -0.52827,-0.4036 -1.06692,-0.79237 -1.61327,-1.17107 -0.44173,-0.35338 -0.94148,0.27131 -0.49976,0.62469 z" />
  <path
     style="fill:#000000;stroke-width:0.264583"
     id="path95"
     d="m 156.87564,106.15795 c 0.0428,0.0209 0.0872,0.039 0.12851,0.0628 0.32804,0.18893 0.63938,0.40955 0.96391,0.60464 0.28604,0.17195 0.67771,0.39417 0.96607,0.55932 0.85259,0.46718 1.70496,0.93355 2.61542,1.27856 0.62707,0.19085 1.23481,0.42981 1.81496,0.73461 0.6789,0.37929 1.20034,0.94537 1.70711,1.52244 0.55077,0.63852 1.0049,1.3478 1.45926,2.05536 0.30148,0.48802 0.64815,0.95109 0.92943,1.451 0.2089,0.3937 0.45749,0.7675 0.6307,1.17916 0.0223,0.0545 0.0447,0.10897 0.067,0.16346 0.21473,0.52335 0.95485,0.21967 0.74012,-0.30367 v 0 c -0.0238,-0.0579 -0.0475,-0.11574 -0.0713,-0.17361 -0.18887,-0.43845 -0.44296,-0.84305 -0.67148,-1.26137 -0.29328,-0.50973 -0.63805,-0.98955 -0.95137,-1.48724 -0.47602,-0.74129 -0.95371,-1.48313 -1.5316,-2.1513 -0.57235,-0.65036 -1.16864,-1.28074 -1.9371,-1.70309 -0.60966,-0.31774 -1.24478,-0.57573 -1.90351,-0.7743 -0.8718,-0.32697 -1.68329,-0.78102 -2.50014,-1.22424 -0.26868,-0.15385 -0.67473,-0.38439 -0.94277,-0.54544 -0.34794,-0.20908 -0.68181,-0.44507 -1.03567,-0.64411 -0.0524,-0.0295 -0.10832,-0.0522 -0.16247,-0.0783 -0.51995,-0.22283 -0.83509,0.51248 -0.31514,0.73532 z" />
  <path
     style="fill:#000000;stroke-width:0.264583"
     id="path96"
     d="m 168.07412,116.25103 c 0.25922,0.0195 0.51716,0.0543 0.77161,0.10712 0.55442,0.11235 0.7133,-0.67171 0.15889,-0.78406 v 0 c -0.28109,-0.0559 -0.56477,-0.0986 -0.85089,-0.11909 -0.56288,-0.0563 -0.64248,0.73974 -0.0796,0.79603 z" />
  <path
     style="fill:#000000;stroke-width:0.264583"
     id="path97"
     d="m 173.9331,120.54886 c 0.24075,0.11425 0.46422,0.25871 0.69436,0.39197 0.17556,0.1046 0.35426,0.20358 0.53195,0.30447 0.20655,0.11413 0.42083,0.21422 0.63526,0.31261 0.27309,0.12046 0.55971,0.20136 0.85273,0.25463 0.2344,0.0382 0.46772,0.0834 0.70323,0.1144 0.20941,0.0236 0.4203,0.0277 0.63081,0.0301 0.0739,8e-4 0.14788,5.3e-4 0.22181,5.3e-4 0.56569,-2.6e-4 0.56524,-0.80031 -5.3e-4,-0.8 v 0 c -0.0708,5e-5 -0.14159,1.1e-4 -0.21238,-5.2e-4 -0.179,-0.002 -0.35832,-0.005 -0.53653,-0.0234 -0.2233,-0.0287 -0.44423,-0.0733 -0.66649,-0.10875 -0.22681,-0.039 -0.44768,-0.10338 -0.65945,-0.19424 -0.19351,-0.0885 -0.38687,-0.17879 -0.57355,-0.28103 -0.17598,-0.0999 -0.35305,-0.1978 -0.52684,-0.30154 -0.25786,-0.14846 -0.50823,-0.30999 -0.77933,-0.43452 -0.51994,-0.22283 -0.83508,0.51248 -0.31513,0.73532 z" />
  <path
     style="fill:#000000;stroke-width:0.264583"
     id="path98"
     d="m 166.12732,123.40308 c -0.0387,2.10892 -0.2258,4.21007 -0.42747,6.30842 -0.1837,1.52618 -0.29593,3.06612 -0.55593,4.58262 -0.0711,0.41442 -0.16506,0.78867 -0.261,1.19532 -0.0395,0.13523 -0.079,0.27047 -0.11845,0.4057 -0.2167,0.74702 0.83974,1.05349 1.05645,0.30647 v 0 c 0.0442,-0.15337 0.0885,-0.30674 0.13272,-0.4601 0.10808,-0.46001 0.19754,-0.81378 0.27872,-1.28838 0.26246,-1.53441 0.37711,-3.09223 0.56245,-4.63642 0.20491,-2.13331 0.39443,-4.26955 0.43251,-6.41363 0,-0.77781 -1.1,-0.77781 -1.1,0 z" />
  <path
     style="fill:#000000;stroke-width:0.264583"
     id="path99"
     d="m 171.12844,123.72019 c -0.35297,1.63413 -0.71697,3.26535 -1.04798,4.9043 -0.18685,0.93783 -0.37795,1.87479 -0.56577,2.81242 -0.15277,0.76267 0.9258,0.97872 1.07857,0.21605 v 0 c 0.18771,-0.93706 0.3787,-1.87346 0.56543,-2.81073 0.33343,-1.65122 0.70217,-3.29421 1.05478,-4.9412 0.12787,-0.76724 -0.95716,-0.94808 -1.08503,-0.18084 z" />
  <path
     style="fill:#000000;stroke-width:0.264583"
     id="path100"
     d="m 89.105284,168.39906 c 0.0482,2.0045 0.495988,3.97057 0.926893,5.92006 0.282803,1.13937 0.144817,0.60176 0.411308,1.61351 0.198171,0.75215 1.26187,0.47189 1.063699,-0.28026 v 0 c -0.26026,-0.98749 -0.125806,-0.46413 -0.400941,-1.5707 -0.413859,-1.87162 -0.848291,-3.75848 -0.900959,-5.68261 0,-0.77781 -1.1,-0.77781 -1.1,0 z" />
  <path
     style="fill:#000000;stroke-width:0.264583"
     id="path101"
     d="m 85.980933,170.05126 c 0,0.86263 0,1.72526 0,2.58789 0,0.77782 1.1,0.77782 1.1,0 v 0 c 0,-0.86263 0,-1.72526 0,-2.58789 0,-0.77782 -1.1,-0.77782 -1.1,0 z" />
  <path
     style="fill:#000000;stroke-width:0.264583"
     id="path114"
     d="m 148.50266,128.48575 c -1.68617,-0.0821 -3.37544,-0.089 -5.06332,-0.10701 -0.77777,-0.008 -0.78951,1.09164 -0.0117,1.09994 v 0 c 1.65531,0.0177 3.31176,0.026 4.96561,0.10161 0.77395,0.0774 0.88341,-1.01714 0.10945,-1.09454 z" />
  <path
     style="fill:#000000;stroke-width:0.264583"
     id="path116"
     d="m 142.63928,128.84926 c -1.65244,2.25073 -3.46998,4.37247 -5.3285,6.45378 -0.51803,0.58021 0.30252,1.31282 0.82055,0.7326 v 0 c 1.87906,-2.10491 3.71688,-4.25049 5.38795,-6.52638 0.46669,-0.62225 -0.41331,-1.28225 -0.88,-0.66 z" />
  <path
     style="fill:#000000;stroke-width:0.264583"
     id="path117"
     d="m 144.37839,134.05833 c -1.23027,1.95254 -2.57256,3.82966 -3.92615,5.6977 -0.27879,0.37266 -0.55759,0.74531 -0.83638,1.11797 -0.46591,0.62284 0.41491,1.28174 0.88082,0.6589 v 0 c 0.2821,-0.37715 0.56421,-0.7543 0.84631,-1.13145 1.357,-1.8729 2.7038,-3.75429 3.93655,-5.71231 0.44605,-0.63722 -0.4551,-1.26802 -0.90115,-0.63081 z" />
  <path
     style="fill:#000000;stroke-width:0.264583"
     id="path118"
     d="m 14.574068,135.38686 c -0.343084,2.0357 -0.355237,4.11215 -0.351443,6.17052 0.005,2.68645 0.04898,3.28366 0.14396,6.01756 0.199698,4.03711 0.787929,8.0673 2.342738,11.82301 0.779964,1.88404 1.300347,2.6742 2.285734,4.39238 0.387425,0.67447 1.341261,0.12657 0.953836,-0.5479 v 0 c -0.947201,-1.64625 -1.453253,-2.41415 -2.204437,-4.21664 -1.519869,-3.64696 -2.082451,-7.56625 -2.278536,-11.48909 -0.09502,-2.72813 -0.137632,-3.28863 -0.143352,-5.96813 -0.0042,-1.97303 0.0074,-3.9613 0.318656,-5.91492 0.188649,-0.7546 -0.878508,-1.02138 -1.067156,-0.26679 z" />
  <path
     style="fill:#000000;stroke-width:0.264583"
     id="path119"
     d="m 10.946983,143.36351 c -0.447149,2.39196 -0.409718,4.8488 -0.368004,7.27159 0.07906,2.21504 0.426394,4.40358 1.057221,6.52891 0.419139,1.41213 0.883179,2.50274 1.420255,3.8573 0.286905,0.72296 1.309339,0.31722 1.022434,-0.40575 v 0 c -0.513584,-1.29302 -0.974444,-2.37778 -1.376422,-3.72187 -0.610983,-2.04295 -0.946921,-4.14727 -1.023655,-6.27777 -0.04112,-2.32719 -0.07837,-4.68575 0.335327,-6.98563 0.188649,-0.75459 -0.878508,-1.02138 -1.067156,-0.26678 z" />
  <path
     style="fill:#000000;stroke-width:0.264583"
     id="path120"
     d="m 7.7350497,155.00837 c 0.3195516,2.09186 0.9986934,4.10373 1.7770465,6.06377 0.1516686,0.32628 0.3033373,0.65256 0.4550058,0.97884 0.328465,0.70506 1.325572,0.24054 0.997107,-0.46452 v 0 c -0.143314,-0.30691 -0.286628,-0.61382 -0.429942,-0.92073 -0.7386973,-1.85558 -1.3811258,-3.75812 -1.7020127,-5.73573 -0.055417,-0.77584 -1.1526215,-0.69747 -1.0972046,0.0784 z" />
  <path
     style="fill:#000000;stroke-width:0.264583"
     id="path122"
     d="m 165.29127,84.543089 c 0.44879,2.109185 1.2478,4.146738 2.22679,6.064692 0.30572,0.598932 0.64577,1.179706 0.96866,1.76956 1.82877,3.195378 4.18086,6.056434 6.79814,8.636409 0.49321,0.48618 1.01127,0.94649 1.5169,1.41974 1.65164,1.4775 0.85808,0.78903 2.3745,2.07251 0.59378,0.50242 1.30431,-0.3373 0.71053,-0.83972 v 0 c -1.4875,-1.25825 -0.70752,-0.58196 -2.33362,-2.03615 -0.49259,-0.46042 -0.99733,-0.90818 -1.47777,-1.38127 -2.54868,-2.509667 -4.84241,-5.290966 -6.62404,-8.40017 -0.31293,-0.570309 -0.64232,-1.13189 -0.93877,-1.710931 -0.93151,-1.819452 -1.69312,-3.751273 -2.13238,-5.750231 -0.11,-0.770001 -1.19895,-0.614437 -1.08894,0.155561 z" />
  <path
     style="fill:#000000;stroke-width:0.264583"
     id="path123"
     d="m 177.74646,95.479557 c 1.50486,1.431784 3.07375,2.792195 4.6865,4.101002 1.06158,0.809671 0.55853,0.426051 1.50913,1.150861 0.61853,0.47162 1.2855,-0.40311 0.66697,-0.874726 v 0 c -0.94187,-0.718162 -0.44753,-0.341355 -1.48308,-1.130372 -1.62425,-1.317291 -3.1965,-2.694085 -4.71952,-4.126764 -0.62226,-0.466691 -1.28225,0.413308 -0.66,0.879999 z" />
  <path
     style="fill:#e580ff;stroke-width:0.18152"
     d="m 631.41732,435.844 c -4.72475,-1.21522 -5.66522,-1.60233 -8.69475,-3.57888 -2.8406,-1.85329 -4.9574,-3.66582 -7.77988,-6.66162 -3.38396,-3.59177 -4.54803,-5.0116 -8.1342,-9.92148 -2.97807,-4.07732 -6.56286,-8.72933 -7.74159,-10.04634 -0.34302,-0.38326 -0.58638,-0.73414 -0.5408,-0.77972 0.0456,-0.0456 0.50073,0.1635 1.01145,0.46463 4.06757,2.39833 8.71993,4.6349 12.09409,5.81411 2.84037,0.99265 6.25022,2.64267 7.64522,3.6995 1.29936,0.98437 3.99839,3.76413 5.56302,5.72943 0.6041,0.75879 2.41905,3.38087 4.03323,5.82685 2.67271,4.04999 3.84942,5.95404 5.52483,8.93986 l 0.58567,1.04374 -0.78478,-0.008 c -0.43163,-0.005 -1.68331,-0.23936 -2.78151,-0.52183 z"
     id="path127"
     transform="scale(0.26458333)" />
</svg>
