<?xml version="1.0" standalone="no"?>
<!DOCTYPE svg PUBLIC "-//W3C//DTD SVG 20010904//EN"
 "http://www.w3.org/TR/2001/REC-SVG-20010904/DTD/svg10.dtd">
<svg version="1.0" xmlns="http://www.w3.org/2000/svg"
 width="735.000000pt" height="553.000000pt" viewBox="0 0 735.000000 553.000000"
 preserveAspectRatio="xMidYMid meet">

<g transform="translate(0.000000,553.000000) scale(0.100000,-0.100000)"
fill="#000000" stroke="none">
<path d="M3546 4132 c-14 -13 -4 -42 17 -53 12 -6 61 -37 110 -68 l87 -56 -6
-41 c-6 -41 -6 -42 54 -84 56 -39 101 -92 162 -194 l24 -39 -30 7 c-16 4 -41
19 -55 32 -23 22 -39 29 -70 33 -4 1 -31 31 -61 69 -30 37 -78 92 -107 122
-29 30 -59 72 -68 93 -8 20 -19 37 -23 37 -18 0 -65 -22 -72 -33 -22 -34 3
-110 30 -93 9 5 22 -72 22 -119 -1 -15 -4 -12 -14 11 -20 45 -34 50 -47 17 -8
-20 -8 -80 -1 -213 5 -102 7 -235 5 -297 l-5 -112 -237 0 c-238 0 -375 -12
-505 -46 -42 -11 -117 -15 -290 -15 -128 0 -291 -4 -362 -10 -71 -5 -223 -17
-339 -25 -201 -15 -342 -34 -412 -56 -25 -8 -33 -16 -33 -34 0 -32 17 -43 91
-59 75 -15 72 -17 -86 -44 -92 -16 -122 -18 -133 -9 -11 9 -18 7 -32 -11 -10
-12 -26 -22 -35 -22 -11 0 -15 -7 -13 -22 3 -23 32 -34 143 -53 l40 -7 -31
-13 c-38 -16 -46 -26 -34 -45 7 -11 37 -11 192 4 100 9 193 20 206 23 12 3 22
1 22 -4 0 -6 -30 -13 -67 -17 -38 -3 -93 -13 -123 -21 -30 -8 -78 -15 -107
-15 -28 0 -55 -5 -58 -11 -10 -15 1 -22 37 -22 21 0 39 -8 49 -21 16 -19 20
-20 161 -8 79 7 161 15 181 19 46 7 50 -12 5 -20 -251 -46 -448 -112 -448
-152 0 -27 28 -37 80 -30 l51 7 -7 -26 c-8 -32 18 -46 44 -23 53 48 270 95
587 128 161 16 911 22 1175 10 284 -14 298 -15 303 -21 3 -3 7 -45 11 -95 3
-49 13 -178 21 -285 17 -226 43 -618 47 -704 3 -66 19 -82 37 -39 6 15 18 39
26 53 8 14 22 58 31 97 9 40 19 73 23 73 3 0 11 -10 16 -22 16 -34 44 -46 59
-25 16 21 26 22 26 1 0 -11 6 -14 21 -9 34 11 12 -15 -27 -31 -35 -15 -52 -49
-40 -80 4 -10 -10 -33 -39 -66 -46 -52 -58 -94 -29 -105 8 -3 25 3 37 14 45
40 253 153 281 153 3 0 6 -13 6 -30 0 -39 12 -38 63 4 23 18 66 48 95 66 51
31 64 54 41 77 -23 23 321 268 586 418 147 84 389 201 511 248 123 47 174 74
174 92 0 25 -33 17 -151 -39 -107 -51 -196 -82 -205 -73 -2 2 28 31 68 65 40
33 91 76 113 95 28 24 86 50 199 91 221 80 359 140 427 187 65 44 70 49 78 93
6 29 8 30 55 27 93 -5 42 22 -200 110 -131 47 -295 109 -364 136 -69 28 -155
60 -191 72 -37 12 -75 31 -85 43 -11 11 -50 36 -89 55 -38 20 -75 43 -82 53
-6 9 -31 22 -55 29 -159 46 -300 120 -538 283 -80 54 -237 162 -350 239 -113
77 -279 194 -370 259 -157 114 -192 135 -204 122z m64 -305 c0 -10 -4 -15 -10
-12 -5 3 -10 18 -10 33 0 21 2 24 10 12 5 -8 10 -23 10 -33z m86 -65 c-9 -8
-56 31 -56 46 0 11 8 8 30 -13 16 -16 28 -30 26 -33z m-67 -14 c11 -36 35
-170 46 -262 8 -58 7 -58 -16 -51 -37 11 -39 15 -49 106 -19 179 -21 239 -6
239 8 0 19 -15 25 -32z m59 -20 c15 -19 25 -108 13 -108 -13 0 -15 -27 -2 -32
14 -5 26 -168 12 -168 -6 0 -11 6 -11 13 0 6 -9 75 -20 152 -11 77 -20 143
-20 147 0 12 16 9 28 -4z m88 -68 c44 -31 51 -44 36 -67 -6 -9 -18 -6 -47 10
-32 18 -41 29 -43 55 -2 17 0 32 3 32 4 0 26 -14 51 -30z m459 -70 c33 -25
124 -90 203 -145 78 -54 141 -99 139 -101 -2 -2 -44 14 -93 36 -77 34 -105 54
-210 150 -66 60 -129 117 -140 126 -41 35 42 -20 101 -66z m-145 -32 c1 -20
-50 19 -66 50 -30 59 -28 60 20 7 25 -27 45 -53 46 -57z m-243 -70 c6 -12 15
-45 18 -72 6 -39 5 -48 -6 -44 -8 2 -18 21 -23 41 -11 44 -34 48 -42 8 -5 -25
-9 -28 -28 -22 -23 9 -34 51 -35 129 l-1 44 53 -30 c28 -17 57 -41 64 -54z
m176 28 c20 -12 62 -74 54 -82 -2 -3 -38 27 -78 66 -76 74 -75 74 24 16z m151
-86 c30 -17 66 -47 81 -66 l27 -35 -34 14 c-94 40 -108 51 -136 110 -6 13 7 8
62 -23z m-615 -112 c6 -51 14 -112 18 -135 5 -39 4 -43 -16 -43 -19 0 -21 5
-21 68 0 37 -3 97 -7 135 -9 103 12 82 26 -25z m126 82 c3 -5 1 -10 -4 -10 -6
0 -11 5 -11 10 0 6 2 10 4 10 3 0 8 -4 11 -10z m8 -115 c4 -41 10 -93 13 -115
6 -35 4 -40 -13 -40 -17 0 -21 14 -36 118 -22 151 -22 146 7 127 20 -13 24
-26 29 -90z m85 60 c4 -30 4 -30 -17 -11 -26 23 -28 49 -3 44 10 -2 18 -14 20
-33z m242 -12 c0 -10 -8 -12 -27 -7 -42 10 -51 23 -29 40 17 12 22 12 38 -3
10 -9 18 -22 18 -30z m352 -8 c41 -23 100 -75 84 -75 -17 0 -103 51 -125 74
-31 33 -16 33 41 1z m-237 -29 c18 -14 19 -15 2 -16 -27 0 -57 19 -57 36 0 16
16 10 55 -20z m-174 13 c11 -5 17 -14 14 -19 -3 -5 3 -15 15 -22 19 -12 27
-47 14 -61 -3 -3 -24 4 -45 15 -35 18 -39 24 -39 59 0 41 8 46 41 28z m-188
-67 c-3 -25 -10 -41 -17 -39 -12 4 -20 71 -11 95 5 13 8 14 20 1 10 -10 12
-27 8 -57z m974 -22 c122 -48 164 -70 172 -87 l10 -22 -42 18 c-143 63 -367
171 -367 177 0 2 15 -2 33 -9 17 -8 105 -42 194 -77z m-362 -8 c-3 -3 -11 0
-18 7 -9 10 -8 11 6 5 10 -3 15 -9 12 -12z m-256 -31 c17 -21 31 -42 31 -45 0
-4 -18 4 -40 16 -28 16 -40 30 -40 46 0 32 14 27 49 -17z m594 -19 c34 -14 52
-42 27 -42 -17 0 -83 37 -115 65 l-30 26 40 -17 c22 -9 57 -23 78 -32z m-233
8 c8 -5 11 -10 5 -10 -5 0 -17 5 -25 10 -8 5 -10 10 -5 10 6 0 17 -5 25 -10z
m-224 -32 c-3 -13 -6 -26 -6 -30 0 -5 -4 -8 -10 -8 -5 0 -10 14 -10 30 0 21 5
30 16 30 12 0 15 -6 10 -22z m135 -30 c23 -8 25 -13 20 -41 -4 -18 -10 -31
-14 -30 -4 1 -21 4 -37 8 -27 6 -30 10 -30 47 0 34 3 39 18 33 9 -4 29 -11 43
-17z m464 -8 c32 -14 36 -19 23 -25 -24 -10 -72 8 -76 28 -4 21 2 20 53 -3z
m135 0 c12 -8 10 -10 -10 -10 -14 0 -32 5 -40 10 -12 8 -10 10 10 10 14 0 32
-5 40 -10z m-1683 -10 c158 -13 183 -18 183 -41 0 -18 -9 -19 -136 -19 -114 0
-139 3 -148 16 -9 12 -43 19 -134 27 -71 6 -117 14 -110 19 17 10 207 10 345
-2z m1199 -37 c-3 -8 -6 -21 -6 -30 0 -25 -25 -8 -26 18 -1 33 4 39 22 32 8
-3 13 -12 10 -20z m-990 -10 c-10 -10 -19 5 -10 18 6 11 8 11 12 0 2 -7 1 -15
-2 -18z m1554 17 c0 -13 -11 -13 -30 0 -12 8 -11 10 8 10 12 0 22 -4 22 -10z
m-1495 -10 c3 -5 -3 -10 -14 -10 -12 0 -21 5 -21 10 0 6 6 10 14 10 8 0 18 -4
21 -10z m555 -20 c0 -5 3 -16 6 -25 6 -14 3 -14 -30 1 -21 11 -36 25 -36 35 0
16 4 17 30 8 17 -6 30 -15 30 -19z m866 14 c33 -14 36 -17 20 -26 -18 -10
-100 13 -111 33 -10 15 49 10 91 -7z m169 -20 c61 -36 46 -37 -32 -3 -24 10
-43 23 -43 28 0 17 10 13 75 -25z m-2514 -4 l24 -19 -245 -2 c-135 -1 -254 -3
-265 -4 -11 -1 -90 -5 -175 -9 -85 -4 -180 -9 -210 -11 -40 -4 -48 -3 -29 4
66 22 503 57 750 60 113 1 129 -1 150 -19z m1573 -35 c-8 -20 -20 -19 -28 1
-11 28 -7 35 14 24 11 -6 17 -16 14 -25z m1013 -32 c57 -20 61 -30 14 -38 -32
-5 -53 1 -130 36 -81 37 -91 45 -76 55 14 11 29 8 84 -13 36 -14 85 -32 108
-40z m-3607 48 c-8 -4 -41 -13 -73 -20 -32 -7 -65 -20 -75 -30 -15 -15 -23
-16 -72 -6 -52 11 -53 13 -30 22 22 9 54 15 200 37 49 7 66 6 50 -3z m3045 -3
c25 -11 35 -48 13 -48 -14 0 -58 40 -58 52 0 11 15 10 45 -4z m-69 -19 c18
-20 18 -20 -11 -13 -39 9 -46 14 -40 25 10 15 31 10 51 -12z m-2346 -24 c-52
-6 -131 -9 -175 -6 l-80 6 55 6 c30 3 109 6 175 6 l120 1 -95 -13z m578 -2
c-10 -2 -28 -2 -40 0 -13 2 -5 4 17 4 22 1 32 -1 23 -4z m648 -2 c-7 -11 -180
-13 -231 -2 -30 7 -5 9 98 10 76 0 136 -3 133 -8z m97 2 c-7 -2 -19 -2 -25 0
-7 3 -2 5 12 5 14 0 19 -2 13 -5z m357 -8 c0 -8 -7 -15 -15 -15 -16 0 -20 12
-8 23 11 12 23 8 23 -8z m170 -1 c0 -2 -7 -4 -15 -4 -8 0 -15 4 -15 10 0 5 7
7 15 4 8 -4 15 -8 15 -10z m275 6 c3 -5 -3 -10 -14 -10 -12 0 -21 5 -21 10 0
6 6 10 14 10 8 0 18 -4 21 -10z m-565 -38 c0 -25 -4 -29 -30 -29 -33 0 -39 17
-14 41 25 25 44 20 44 -12z m1869 -46 c24 -9 52 -16 62 -16 20 0 222 -71 216
-76 -9 -9 -332 81 -394 111 -40 19 -73 36 -73 38 0 5 105 -27 189 -57z m-1979
44 c0 -5 -4 -10 -10 -10 -5 0 -10 5 -10 10 0 6 5 10 10 10 6 0 10 -4 10 -10z
m474 -22 c12 -36 6 -41 -39 -32 -43 8 -56 31 -29 51 28 20 57 12 68 -19z m204
10 c5 -24 -20 -23 -49 2 l-24 20 35 -2 c24 -2 36 -8 38 -20z m961 -14 c-14
-18 -24 -11 -15 11 3 9 11 13 16 10 8 -5 7 -11 -1 -21z m-2059 6 c0 -5 -4 -10
-10 -10 -5 0 -10 5 -10 10 0 6 5 10 10 10 6 0 10 -4 10 -10z m67 -6 c-3 -3
-12 -4 -19 -1 -8 3 -5 6 6 6 11 1 17 -2 13 -5z m1261 -10 c28 -3 52 -10 52
-14 0 -4 -23 -17 -50 -28 -59 -25 -110 -21 -110 8 0 35 12 52 34 46 11 -3 45
-8 74 -12z m852 -13 c41 -16 101 -41 133 -55 32 -14 66 -26 77 -26 11 0 20 -5
20 -11 0 -6 -8 -8 -17 -5 -10 3 -54 12 -98 21 -105 21 -235 56 -235 63 0 8 32
42 39 42 4 0 40 -13 81 -29z m-1985 9 c4 -6 -5 -10 -19 -10 -14 0 -26 5 -26
10 0 6 9 10 19 10 11 0 23 -4 26 -10z m105 -10 c0 -5 -9 -10 -21 -10 -11 0
-17 5 -14 10 3 6 13 10 21 10 8 0 14 -4 14 -10z m-2238 -37 c-4 -19 0 -23 21
-23 36 0 43 -18 12 -30 -34 -13 -72 -13 -135 1 -73 16 -65 39 20 60 85 20 87
20 82 -8z m3009 17 c28 -16 23 -32 -8 -28 -17 2 -29 10 -31 21 -4 19 10 22 39
7z m379 0 c0 -9 -31 -30 -45 -30 -3 0 -1 9 5 20 11 20 40 28 40 10z m-2890
-20 c0 -5 -8 -10 -17 -10 -10 0 -49 -3 -88 -6 -75 -7 -83 5 -12 17 65 10 117
10 117 -1z m2804 -15 c-4 -8 -12 -15 -20 -15 -17 0 -18 17 -1 23 22 9 27 7 21
-8z m-2644 -15 c10 -7 -15 -9 -80 -9 -68 1 -85 4 -60 9 52 11 123 11 140 0z
m663 3 c-7 -2 -21 -2 -30 0 -10 3 -4 5 12 5 17 0 24 -2 18 -5z m1490 -12 c4
-4 5 -16 1 -25 -5 -14 -14 -17 -37 -12 -39 8 -41 10 -27 36 8 15 17 19 33 14
12 -3 26 -9 30 -13z m887 -16 c-5 -6 -28 -20 -50 -30 -54 -24 -72 -10 -41 33
20 28 23 29 61 20 30 -8 38 -14 30 -23z m775 16 c39 -10 82 -21 98 -25 38 -9
35 -37 -9 -86 -45 -49 -121 -92 -299 -167 -215 -91 -228 -96 -218 -78 5 8 55
49 111 90 l102 75 50 -20 c41 -16 50 -17 50 -5 0 8 -12 21 -27 28 l-27 15 45
6 c118 19 138 45 62 81 -52 24 -58 47 -10 38 17 -3 36 -10 42 -14 16 -16 35
-10 35 11 0 15 -14 28 -52 45 -63 30 -47 32 47 6z m-1460 -12 c4 -6 5 -13 2
-16 -8 -7 -47 7 -47 18 0 13 37 11 45 -2z m1058 4 c-7 -2 -19 -2 -25 0 -7 3
-2 5 12 5 14 0 19 -2 13 -5z m-3748 -23 c31 -6 15 -8 -71 -9 -127 -1 -190 7
-159 21 22 9 166 2 230 -12z m3573 -14 l24 -13 -26 -16 c-26 -17 -72 -20 -115
-8 -25 7 -25 7 10 29 38 25 73 27 107 8z m295 -12 c38 -8 71 -14 73 -14 3 0 3
-4 0 -9 -3 -4 -26 -11 -51 -14 -38 -6 -57 -2 -110 22 -36 17 -65 32 -65 35 0
7 56 0 153 -20z m-988 7 c20 -8 20 -8 -2 -15 -25 -8 -73 2 -73 15 0 11 47 11
75 0z m-3120 -10 c-6 -5 -41 -11 -78 -13 -58 -3 -66 -2 -51 9 20 15 144 19
129 4z m835 -1 c0 -5 -11 -10 -25 -10 -14 0 -25 5 -25 10 0 6 11 10 25 10 14
0 25 -4 25 -10z m3105 0 c3 -6 -1 -7 -9 -4 -18 7 -21 14 -7 14 6 0 13 -4 16
-10z m-60 -22 c34 -15 32 -26 -5 -20 -17 2 -30 10 -30 18 0 17 2 17 35 2z
m-1175 -12 c0 -20 -16 -29 -40 -21 -32 10 -25 35 10 35 19 0 30 -5 30 -14z
m208 -31 c-2 -2 -16 -7 -32 -11 -36 -9 -32 14 5 33 20 11 25 10 27 -3 2 -9 2
-17 0 -19z m-533 15 c4 -6 -6 -10 -22 -10 -22 0 -25 2 -13 10 19 12 27 12 35
0z m669 -15 c-25 -19 -40 -19 -24 0 7 8 20 15 28 15 13 0 12 -3 -4 -15z m1291
5 c3 -5 -1 -10 -10 -10 -9 0 -13 5 -10 10 3 6 8 10 10 10 2 0 7 -4 10 -10z
m-1185 -8 c0 -21 -104 -92 -135 -92 -26 0 -14 16 45 59 52 37 90 51 90 33z
m-2503 -8 c-3 -3 -12 -4 -19 -1 -8 3 -5 6 6 6 11 1 17 -2 13 -5z m751 -15 c67
-7 122 -15 122 -19 0 -21 -852 -21 -865 0 -2 4 48 12 113 19 64 6 133 13 152
15 63 7 352 -2 478 -15z m2580 11 c-10 -6 -25 -7 -40 -1 -20 9 -18 10 17 10
31 0 36 -2 23 -9z m-3413 -11 c-22 -4 -53 -8 -70 -7 -29 0 -29 0 -5 8 14 4 45
8 70 8 l45 0 -40 -9z m-419 -10 c3 -5 -30 -9 -73 -8 -53 0 -71 3 -58 9 26 11
124 10 131 -1z m67 4 c-7 -2 -21 -2 -30 0 -10 3 -4 5 12 5 17 0 24 -2 18 -5z
m2683 -30 c-3 -4 -16 -1 -28 4 l-23 11 25 10 c19 7 26 6 28 -5 2 -8 1 -17 -2
-20z m474 32 c0 -5 -55 -35 -65 -35 -14 0 -3 18 18 28 24 11 47 15 47 7z m693
-2 c-7 -2 -21 -2 -30 0 -10 3 -4 5 12 5 17 0 24 -2 18 -5z m-443 -53 c-44 -38
-56 -38 -33 0 12 21 25 30 43 30 25 -1 25 -1 -10 -30z m410 25 c0 -2 -31 -22
-69 -45 -92 -53 -168 -55 -119 -3 17 18 32 23 70 23 36 0 48 4 48 15 0 10 11
15 35 15 19 0 35 -2 35 -5z m-772 -22 c-2 -12 -14 -19 -36 -21 -39 -4 -42 10
-4 25 39 16 44 15 40 -4z m522 7 c0 -10 -61 -30 -70 -23 -8 7 32 33 52 33 10
0 18 -4 18 -10z m-3280 -21 c117 -15 109 -18 -160 -54 -107 -15 -253 -35 -325
-45 -71 -10 -131 -17 -132 -16 -8 7 125 59 197 77 121 30 281 58 305 54 11 -2
63 -10 115 -16z m1405 -9 c27 -7 25 -8 -15 -8 -25 0 -70 3 -100 8 l-55 7 70 0
c39 1 84 -3 100 -7z m1896 -10 c-24 -21 -51 -26 -51 -11 0 5 12 14 28 19 42
16 49 13 23 -8z m-1447 4 c24 -9 20 -44 -4 -44 -15 0 -20 7 -20 25 0 27 1 28
24 19z m297 -7 c-1 -4 -1 -14 -1 -22 0 -8 -7 -15 -15 -15 -15 0 -21 31 -8 44
8 8 25 3 24 -7z m1359 8 c0 -2 -10 -9 -22 -15 -22 -11 -22 -10 -4 4 21 17 26
19 26 11z m-75 -45 c-3 -5 -11 -10 -16 -10 -6 0 -7 5 -4 10 3 6 11 10 16 10 6
0 7 -4 4 -10z m-465 -10 c0 -5 -5 -10 -11 -10 -5 0 -7 5 -4 10 3 6 8 10 11 10
2 0 4 -4 4 -10z m-392 -12 c-3 -7 -25 -26 -51 -42 -74 -46 -104 -13 -31 35 33
22 88 26 82 7z m-967 -65 c1 -38 2 -122 4 -188 3 -157 -10 -81 -20 113 -6 103
-5 142 4 142 7 0 11 -24 12 -67z m60 37 c4 -14 8 -68 8 -120 2 -127 -19 -520
-28 -545 -5 -11 -11 126 -15 305 -4 179 -9 340 -13 358 -5 31 -4 33 18 30 15
-2 26 -12 30 -28z m1072 1 c4 -4 -13 -21 -38 -39 -65 -46 -121 -41 -95 8 20
38 103 57 133 31z m445 12 c-10 -2 -28 -2 -40 0 -13 2 -5 4 17 4 22 1 32 -1
23 -4z m-1461 -35 c-3 -7 -5 -2 -5 12 0 14 2 19 5 13 2 -7 2 -19 0 -25z m137
-50 c-6 -80 -44 -446 -49 -473 -5 -29 5 398 11 482 6 66 8 72 24 63 15 -8 17
-19 14 -72z m1032 37 c-11 -8 -25 -15 -30 -15 -6 0 -2 7 8 15 11 8 25 15 30
15 6 0 2 -7 -8 -15z m-926 -10 c0 -30 -23 -120 -32 -130 -7 -7 -9 1 -4 25 4
19 9 54 13 78 5 39 23 60 23 27z m141 -18 c-8 -8 -11 -7 -11 4 0 20 13 34 18
19 3 -7 -1 -17 -7 -23z m1019 23 c0 -5 -10 -10 -22 -10 -13 0 -41 -3 -63 -6
-38 -5 -39 -4 -21 10 22 18 106 22 106 6z m-623 -67 c4 -12 -60 -37 -79 -31
-7 3 -4 12 11 27 23 23 61 25 68 4z m-727 -323 c-12 -155 -28 -258 -61 -410
-27 -121 -38 -142 -39 -70 0 75 26 217 43 235 9 8 17 48 21 102 4 48 9 106 11
128 2 22 9 103 15 180 13 184 14 186 18 75 2 -52 -2 -160 -8 -240z m535 310
c-3 -5 -11 -10 -16 -10 -6 0 -7 5 -4 10 3 6 11 10 16 10 6 0 7 -4 4 -10z m665
-18 c0 -4 -12 -15 -27 -24 -41 -23 -206 -108 -212 -108 -10 0 64 64 118 102
37 26 65 38 88 38 18 0 33 -4 33 -8z m126 -1 c-7 -11 -222 -131 -235 -131 -22
0 -10 19 26 42 88 55 170 97 191 97 13 1 21 -3 18 -8z m199 0 c-31 -27 -187
-151 -193 -152 -63 -11 -56 -3 64 76 120 79 152 98 129 76z m-844 -41 c-25
-21 -51 -26 -51 -10 0 13 31 29 55 29 19 0 19 -1 -4 -19z m159 -4 c0 -8 -132
-107 -137 -103 -2 3 7 23 21 46 17 27 37 44 58 50 37 10 58 13 58 7z m-325
-53 c-9 -37 -25 -53 -25 -26 0 29 10 53 22 53 6 0 7 -11 3 -27z m700 -9 c-26
-20 -136 -76 -141 -72 -4 5 137 86 151 87 6 0 1 -7 -10 -15z m-335 -9 c0 -8
-155 -106 -235 -149 -105 -56 -36 -5 109 81 131 78 126 75 126 68z m96 -78
c-16 -12 -77 -48 -135 -79 -124 -67 -110 -54 44 41 104 64 154 85 91 38z m284
-6 c0 -7 -101 -75 -210 -139 -77 -46 -274 -142 -292 -142 -13 0 130 113 190
150 27 16 58 30 68 30 10 1 61 27 113 59 58 37 100 57 112 54 11 -3 19 -8 19
-12z m79 5 c-2 -2 -15 -9 -29 -15 -24 -11 -24 -11 -6 3 16 13 49 24 35 12z
m-909 -36 c0 -5 -5 -10 -11 -10 -5 0 -7 5 -4 10 3 6 8 10 11 10 2 0 4 -4 4
-10z m0 -64 c0 -2 -7 -7 -16 -10 -8 -3 -12 -2 -9 4 6 10 25 14 25 6z m251 -24
c-38 -30 -290 -177 -322 -187 -17 -6 -20 -3 -17 12 3 20 130 92 162 93 10 0
24 7 30 15 14 19 146 94 166 94 9 1 0 -11 -19 -27z m-560 -99 c-16 -101 -20
-113 -36 -113 -10 0 -7 23 13 100 14 55 28 98 30 95 3 -2 -1 -39 -7 -82z m56
25 c-3 -7 -5 -2 -5 12 0 14 2 19 5 13 2 -7 2 -19 0 -25z m563 8 c0 -3 -64 -44
-142 -92 -79 -48 -153 -94 -165 -102 -50 -32 -18 0 60 61 84 66 247 153 247
133z m-576 -74 c-4 -18 -10 -32 -15 -32 -4 0 -3 15 2 32 5 18 9 35 9 37 0 2 2
2 5 -1 3 -3 2 -19 -1 -36z m631 -48 c-11 -8 -60 -43 -109 -77 -49 -34 -123
-92 -165 -130 -42 -37 -98 -77 -126 -89 -27 -12 -115 -54 -194 -94 -150 -76
-158 -72 -41 20 198 158 399 285 545 346 98 41 121 47 90 24z m-503 -16 c-7
-7 -12 -8 -12 -2 0 14 12 26 19 19 2 -3 -1 -11 -7 -17z m123 -6 c-38 -33 -95
-72 -104 -72 -25 0 12 42 52 60 46 20 67 25 52 12z m-273 -194 c-7 -7 -12 -8
-12 -2 0 14 12 26 19 19 2 -3 -1 -11 -7 -17z m73 -62 c-16 -13 -32 -22 -35
-19 -7 6 39 43 54 43 6 0 -2 -11 -19 -24z m-93 -68 c-7 -7 -12 -8 -12 -2 0 14
12 26 19 19 2 -3 -1 -11 -7 -17z"/>
</g>
</svg>
