<?xml version="1.0" standalone="no"?>
<!DOCTYPE svg PUBLIC "-//W3C//DTD SVG 20010904//EN"
 "http://www.w3.org/TR/2001/REC-SVG-20010904/DTD/svg10.dtd">
<svg version="1.0" xmlns="http://www.w3.org/2000/svg"
 width="720.000000pt" height="720.000000pt" viewBox="0 0 720.000000 720.000000"
 preserveAspectRatio="xMidYMid meet">

<g transform="translate(0.000000,720.000000) scale(0.100000,-0.100000)"
fill="#000000" stroke="none">
<path d="M3443 5631 c-37 -10 -442 -362 -1168 -1016 -537 -483 -725 -659 -725
-676 0 -12 30 -39 43 -39 7 0 62 46 122 102 387 357 1434 1287 1683 1495 80
67 77 66 167 29 64 -27 220 -137 370 -261 199 -163 232 -185 695 -445 494
-277 693 -395 836 -497 131 -93 245 -200 269 -252 17 -38 17 -42 1 -66 -21
-33 -46 -33 -46 0 0 18 -11 32 -37 49 -30 19 -990 590 -1143 680 -19 11 -71
47 -115 81 -196 149 -491 351 -648 444 -124 72 -263 141 -286 141 -21 0 -45
-33 -38 -53 2 -6 -18 -28 -44 -48 -25 -21 -56 -51 -68 -67 -18 -27 -25 -29
-63 -25 -61 6 -94 -25 -227 -216 -96 -138 -121 -168 -187 -218 -290 -220 -506
-406 -735 -630 -97 -95 -178 -170 -181 -167 -12 11 -94 5 -129 -10 -20 -8 -60
-34 -89 -58 -79 -64 -132 -100 -138 -94 -3 3 -7 28 -10 56 -5 58 -27 79 -63
59 -20 -10 -21 -17 -15 -77 8 -92 28 -117 93 -117 28 0 57 -6 67 -14 15 -12
22 -12 52 2 31 15 37 16 50 2 22 -21 31 -19 74 18 32 27 46 32 74 29 31 -4 36
-8 41 -36 3 -17 10 -222 15 -456 6 -234 15 -472 20 -530 11 -117 40 -321 46
-332 2 -4 -8 -8 -23 -10 -23 -2 -29 -8 -31 -35 -3 -31 -1 -33 42 -45 46 -12
59 -31 31 -42 -25 -9 -18 -64 11 -91 51 -47 86 -51 384 -43 151 4 401 14 555
23 154 9 467 20 695 25 412 8 415 8 431 -12 12 -16 23 -19 43 -14 14 3 26 13
26 20 0 20 211 31 557 30 267 -1 283 0 288 17 6 18 19 19 165 19 92 0 161 -4
165 -10 11 -17 100 8 117 34 16 23 8 65 -16 83 -23 17 -25 27 -35 173 -28 399
-55 1178 -49 1398 l3 112 137 -69 c153 -76 200 -89 253 -66 47 19 80 88 70
146 -19 109 -218 282 -590 511 -98 61 -160 96 -680 385 -345 192 -352 196
-525 339 -210 174 -292 231 -402 284 -90 43 -151 59 -185 51z m109 -404 c18
-14 85 -56 148 -94 63 -38 228 -149 365 -247 305 -219 765 -524 1017 -676
l187 -113 5 -51 c3 -28 10 -265 16 -526 10 -474 19 -688 41 -978 6 -84 8 -156
5 -160 -8 -7 -792 -4 -934 5 -73 4 -100 9 -93 16 6 6 11 32 11 58 0 81 -30
423 -61 694 -20 181 -29 312 -30 435 -1 96 -4 186 -8 200 -3 14 -20 32 -36 40
-20 9 -38 31 -52 62 -15 32 -31 51 -49 58 -43 17 -208 13 -381 -9 -87 -11
-233 -24 -325 -30 -119 -7 -184 -16 -227 -31 -44 -14 -86 -20 -155 -20 -93 0
-96 -1 -102 -24 -3 -13 -1 -32 4 -43 5 -10 10 -61 11 -113 1 -52 6 -273 11
-490 9 -341 14 -416 35 -548 14 -84 25 -170 25 -192 0 -29 6 -43 22 -54 19
-14 3 -15 -177 -18 -249 -4 -716 9 -726 19 -11 11 -46 227 -59 363 -6 63 -15
286 -20 495 -5 209 -12 426 -16 482 l-6 103 108 116 c76 82 150 147 244 218
373 277 562 445 729 648 61 75 96 105 246 210 96 68 177 129 180 137 6 16 -22
51 -40 51 -7 0 -30 -13 -51 -28 -68 -49 -71 -46 -14 12 49 51 58 57 87 52 18
-2 47 -16 65 -29z m503 -1357 c4 -7 -49 -10 -152 -9 -98 1 -143 5 -118 9 63
11 263 11 270 0z m-1035 -132 c0 -24 -6 -92 -12 -153 l-13 -110 -5 145 c-3 80
-4 148 -2 153 2 4 10 7 18 7 10 0 14 -12 14 -42z m436 -265 c-3 -170 -9 -323
-12 -340 -7 -39 -10 -40 -212 -49 l-144 -6 6 304 c4 166 12 322 18 345 l10 42
137 4 c75 1 151 4 170 5 l34 2 -7 -307z m629 295 c4 -3 18 -75 32 -160 32
-191 32 -282 2 -810 l-23 -398 -268 0 c-233 0 -269 2 -275 15 -3 9 2 21 10 28
9 7 24 41 34 77 15 53 18 105 18 278 l0 212 180 0 c187 0 205 4 205 42 0 30
-44 49 -127 55 -43 3 -83 10 -89 14 -7 5 -43 4 -88 -3 -41 -6 -79 -8 -83 -4
-5 4 -8 130 -8 279 0 150 -4 278 -8 285 -5 6 -19 12 -33 12 -22 0 -24 4 -24
46 l0 45 269 -3 c148 -2 272 -6 276 -10z m-645 -805 c0 -21 2 -67 5 -103 18
-255 26 -453 19 -460 -5 -4 -105 -11 -223 -15 l-214 -8 26 29 c27 29 27 29 29
211 2 101 3 225 3 276 l0 92 70 5 c39 3 118 7 178 8 l107 3 0 -38z m790 -373
c7 -96 17 -181 23 -188 9 -11 3 -13 -29 -10 l-39 4 2 50 c13 434 20 458 43
144z m-1770 -297 l105 -7 -120 -13 c-66 -7 -147 -10 -180 -7 -58 6 -125 27
-125 39 0 5 94 2 320 -12z"/>
</g>
</svg>
