<?xml version="1.0" standalone="no"?>
<!DOCTYPE svg PUBLIC "-//W3C//DTD SVG 20010904//EN"
 "http://www.w3.org/TR/2001/REC-SVG-20010904/DTD/svg10.dtd">
<svg version="1.0" xmlns="http://www.w3.org/2000/svg"
 width="736.000000pt" height="552.000000pt" viewBox="0 0 736.000000 552.000000"
 preserveAspectRatio="xMidYMid meet">

<g transform="translate(0.000000,552.000000) scale(0.100000,-0.100000)"
fill="#000000" stroke="none">
<path d="M3666 4319 c-15 -9 -46 -20 -69 -23 -43 -7 -127 -45 -127 -58 0 -5
-8 -8 -17 -8 -20 -1 -55 -24 -47 -32 2 -3 -9 -8 -25 -11 -23 -5 -28 -10 -24
-25 4 -17 1 -19 -23 -14 -23 4 -26 2 -21 -12 4 -10 7 -20 7 -22 0 -11 30 -2
30 9 1 6 6 2 13 -11 12 -20 15 -21 32 -7 11 8 16 15 11 15 -6 0 -1 6 9 14 11
8 25 12 32 9 7 -3 28 6 46 19 17 14 48 28 68 32 21 3 42 13 49 21 7 8 22 15
34 15 12 0 31 6 41 14 10 7 26 11 36 9 9 -3 20 0 23 6 4 5 14 7 22 4 12 -5 15
1 12 28 -3 31 -6 34 -44 39 -28 4 -49 1 -68 -11z"/>
<path d="M3775 4173 c-11 -2 -35 -11 -53 -19 -18 -8 -37 -12 -43 -9 -5 4 -25
-5 -44 -19 -18 -14 -45 -26 -60 -26 -14 0 -35 -9 -46 -19 -12 -11 -36 -22 -55
-25 -18 -4 -41 -14 -50 -24 -9 -9 -24 -17 -33 -19 -8 -1 -21 -9 -27 -17 -6 -9
-16 -16 -23 -16 -6 0 -11 -6 -11 -14 0 -8 -5 -16 -11 -18 -17 -6 -1 -48 18
-48 9 0 13 6 9 15 -3 8 0 15 7 16 39 1 90 9 95 14 3 3 0 11 -7 18 -10 9 -14 8
-22 -5 -6 -10 -17 -18 -24 -18 -18 0 -18 5 -5 31 13 24 73 28 64 4 -4 -8 -1
-15 5 -15 7 0 14 7 17 15 4 8 16 15 28 15 28 0 93 23 108 38 16 16 41 16 31 0
-4 -7 5 -5 20 5 14 9 36 17 48 17 11 0 38 13 58 29 28 22 43 28 65 24 23 -5
27 -3 20 8 -5 8 -9 20 -10 27 -3 19 -25 42 -38 41 -6 -1 -20 -3 -31 -6z"/>
<path d="M3155 4111 c-6 -5 -34 -21 -62 -36 -36 -18 -53 -33 -53 -46 0 -12 -7
-19 -18 -19 -24 0 -82 -49 -82 -68 0 -8 -3 -12 -7 -8 -7 7 -21 -5 -103 -86
-54 -54 -70 -74 -70 -86 0 -6 -11 -17 -25 -26 -14 -9 -25 -25 -25 -36 0 -12
-7 -20 -16 -20 -28 0 -11 -35 19 -38 21 -3 29 2 37 22 5 14 16 26 23 26 8 0
25 16 38 35 13 19 31 37 41 40 9 3 19 12 22 21 3 8 17 19 32 24 14 6 28 19 31
30 3 11 13 22 22 25 9 2 22 19 30 36 7 16 19 28 25 26 7 -3 27 10 46 29 18 19
39 34 46 34 7 0 14 10 16 23 2 17 8 21 29 19 22 -3 29 2 37 27 8 22 8 31 0 31
-5 0 -8 7 -4 15 6 16 -14 21 -29 6z"/>
<path d="M3908 4046 c-19 -20 -138 -76 -161 -76 -17 0 -140 -64 -167 -87 -16
-13 -33 -22 -38 -19 -11 7 -92 -31 -92 -44 0 -5 15 -11 33 -11 85 -4 109 -3
114 4 2 4 11 7 19 7 8 0 25 9 37 21 13 12 30 18 42 15 10 -3 26 1 35 8 8 8 24
16 34 17 11 2 19 9 19 14 -2 17 18 34 33 28 8 -3 22 -2 32 2 9 5 25 7 34 6 12
-2 16 3 12 13 -5 12 1 16 25 16 17 0 31 5 31 12 0 6 7 4 18 -5 10 -10 22 -17
27 -17 10 0 80 -57 156 -127 76 -71 179 -224 179 -267 0 -7 7 -27 16 -45 19
-38 42 -163 45 -246 1 -33 -6 -94 -16 -135 -9 -41 -20 -89 -22 -107 -3 -18
-11 -38 -19 -44 -8 -6 -14 -15 -14 -20 0 -20 -119 -149 -137 -149 -7 0 -12 3
-12 8 5 28 -3 34 -33 29 -74 -13 -98 -20 -98 -27 0 -4 -19 -7 -42 -7 -24 1
-56 -4 -73 -10 -80 -30 -133 -35 -182 -18 -106 38 -169 68 -303 146 -105 61
-260 174 -260 189 0 6 -6 10 -12 10 -21 0 -248 232 -263 267 -14 33 -6 51 16
37 9 -5 10 1 5 22 -6 23 -5 27 5 17 19 -19 29 -16 29 7 0 17 4 19 27 14 22 -6
25 -4 20 10 -4 10 -1 19 8 22 8 4 15 17 15 30 0 17 6 24 19 24 11 0 23 5 26
10 3 6 16 10 28 10 28 1 61 25 52 39 -3 6 0 11 8 11 22 0 47 34 47 63 0 44
-39 37 -88 -15 -9 -10 -20 -18 -25 -18 -12 0 -98 -73 -175 -148 -71 -70 -88
-70 -90 -3 -2 41 14 64 28 41 6 -9 11 -7 19 9 7 11 18 21 25 21 7 0 21 9 31
20 10 11 24 20 32 20 7 0 13 9 13 20 0 11 4 20 8 20 10 0 59 37 97 75 16 16
36 28 43 27 8 -2 12 4 10 15 -2 11 3 18 14 18 9 0 20 4 24 8 4 4 2 7 -4 7 -7
0 -12 11 -12 24 0 32 -20 44 -27 17 -4 -15 -13 -21 -35 -21 -16 0 -39 -10 -53
-22 -13 -13 -36 -32 -51 -43 -42 -31 -108 -95 -99 -95 5 0 -5 -10 -21 -22 -17
-13 -29 -29 -26 -37 3 -10 0 -12 -12 -8 -10 4 -19 1 -22 -8 -4 -9 -19 -15 -35
-15 -24 0 -29 -4 -29 -25 0 -28 -39 -50 -70 -40 -10 3 -21 1 -25 -5 -3 -5 -17
-10 -31 -10 -14 0 -35 -5 -47 -12 -24 -12 -53 -48 -49 -60 1 -5 -4 -8 -12 -8
-8 0 -23 -13 -33 -30 -9 -16 -20 -30 -24 -30 -4 0 -10 -13 -14 -29 -3 -16 -13
-35 -22 -42 -8 -7 -30 -45 -49 -84 -19 -38 -47 -95 -62 -125 -30 -58 -35 -70
-86 -215 -17 -49 -34 -92 -38 -95 -4 -3 -17 -41 -29 -85 -11 -44 -25 -85 -29
-90 -5 -6 -12 -35 -16 -65 -4 -30 -13 -69 -20 -86 -12 -29 -31 -121 -39 -189
-2 -16 -8 -43 -14 -58 -6 -16 -9 -32 -6 -37 3 -4 0 -30 -5 -56 -21 -100 -21
-106 -35 -362 -2 -40 -7 -77 -10 -82 -3 -5 -1 -11 3 -14 5 -3 7 -17 5 -30 -3
-13 0 -69 6 -125 9 -82 15 -104 34 -125 32 -34 51 -17 30 26 -9 17 -12 33 -7
37 11 7 15 101 5 101 -7 0 -6 41 3 170 4 43 1 89 -5 108 -7 21 -7 37 -1 45 5
7 12 44 15 82 8 99 33 271 42 285 4 7 9 37 11 68 2 32 7 64 10 72 4 8 8 30 10
48 2 18 7 38 11 45 4 6 9 29 10 49 1 21 12 63 23 95 11 31 20 64 20 73 0 8 7
28 15 44 8 15 15 35 15 43 0 8 7 27 15 41 8 15 19 39 25 55 9 26 30 38 30 17
0 -5 7 -10 15 -10 8 0 15 -4 15 -9 0 -5 14 -14 31 -21 17 -7 38 -24 46 -37 10
-14 22 -22 31 -18 8 3 21 0 28 -6 23 -19 87 -49 105 -49 19 0 42 -24 32 -33
-3 -4 10 -7 31 -7 20 0 49 -6 64 -13 17 -9 55 -13 102 -12 81 2 95 -3 150 -55
33 -31 35 -31 38 -12 2 13 8 19 18 15 24 -9 15 16 -17 44 -18 17 -28 34 -26
45 6 22 -18 42 -39 34 -11 -4 -47 14 -103 51 -98 66 -118 78 -146 91 -11 6
-45 30 -74 54 -51 43 -91 54 -91 25 0 -16 106 -111 167 -148 30 -19 66 -45 81
-57 l27 -24 -40 7 c-22 3 -55 11 -73 18 -29 10 -35 9 -43 -6 -14 -24 -31 -21
-27 4 2 13 -4 25 -14 30 -32 16 -45 24 -102 62 -31 20 -61 37 -66 37 -6 0 -10
4 -10 9 0 11 -75 51 -95 51 -8 0 -15 4 -15 9 0 9 45 112 92 211 75 157 182
300 224 300 7 0 14 5 16 12 3 7 31 14 70 16 60 4 67 2 73 -17 3 -12 10 -21 15
-21 5 0 16 -15 25 -33 8 -18 42 -62 75 -99 33 -36 60 -70 60 -75 0 -5 25 -33
55 -62 30 -29 55 -56 55 -60 0 -4 -11 -14 -25 -21 -22 -12 -28 -10 -67 26 -24
21 -49 44 -56 51 -7 7 -29 13 -48 13 -29 0 -34 -3 -34 -24 0 -17 14 -34 49
-60 27 -20 52 -43 55 -51 3 -8 12 -15 21 -15 8 0 15 -5 15 -11 0 -6 14 -22 30
-36 17 -14 29 -28 26 -31 -17 -16 84 -132 115 -132 9 0 20 -10 26 -22 7 -15
27 -28 57 -37 49 -14 52 -20 47 -98 -2 -18 2 -33 7 -33 5 0 12 -9 15 -21 3
-12 10 -18 16 -14 6 3 11 -1 11 -9 0 -14 52 -46 75 -46 7 0 27 13 44 29 17 16
33 25 36 21 3 -4 1 -30 -4 -56 -13 -69 -3 -263 15 -288 8 -11 14 -30 14 -41 0
-27 65 -133 98 -159 66 -52 146 -96 175 -96 8 0 38 -7 66 -17 l51 -16 -6 -47
c-4 -31 -2 -50 5 -54 25 -16 11 -43 -30 -55 -22 -7 -49 -21 -60 -32 -10 -10
-30 -19 -43 -19 -13 0 -29 -7 -36 -15 -7 -8 -18 -14 -24 -13 -19 4 -96 -35
-96 -49 0 -7 -9 -13 -20 -13 -13 0 -24 -10 -31 -27 -6 -18 -13 -23 -17 -16
-12 20 -52 3 -52 -21 0 -11 -6 -42 -14 -67 -14 -45 -11 -99 5 -99 5 0 12 12
15 27 13 50 43 89 97 124 74 49 89 58 114 69 12 5 51 23 87 39 35 17 86 39
113 50 26 11 66 27 88 37 22 10 45 19 50 20 6 0 17 3 25 7 100 38 184 55 290
60 44 3 45 3 45 37 l0 35 -80 -1 c-55 0 -92 -6 -120 -19 -22 -10 -65 -20 -95
-22 -30 -2 -57 -8 -60 -13 -3 -5 -19 -16 -35 -24 -26 -14 -30 -13 -41 2 -6 9
-10 22 -7 29 3 7 0 19 -6 27 -6 7 -8 27 -5 45 5 24 12 31 30 31 12 0 25 4 28
9 3 4 23 11 45 15 22 3 46 14 53 24 7 10 21 21 31 25 9 3 17 13 17 22 0 8 3
14 8 14 21 -4 31 3 26 16 -4 9 0 15 8 15 14 0 38 39 38 61 0 5 11 28 25 50 14
22 27 54 28 72 1 18 6 35 11 39 6 4 4 13 -3 22 -11 13 -10 21 6 47 17 25 21
28 27 14 5 -15 8 -15 21 -1 17 17 20 52 5 61 -5 3 -10 19 -10 36 0 16 -4 29
-9 29 -5 0 -11 8 -14 18 -29 94 -72 181 -102 205 -6 5 -3 13 8 20 58 37 140
139 131 161 -4 10 0 18 10 22 9 3 16 12 16 19 0 7 7 26 15 41 8 16 15 36 15
45 0 9 7 20 16 23 11 4 14 13 10 30 -3 12 -3 26 0 29 4 3 8 40 10 83 1 42 6
79 9 82 3 4 28 -18 54 -47 43 -47 52 -53 80 -49 18 3 34 1 36 -3 6 -9 65 12
65 23 0 4 8 8 18 8 13 0 24 14 35 42 15 38 15 46 1 95 -8 29 -20 53 -26 53 -5
0 -7 7 -4 16 9 24 -11 52 -49 65 -19 7 -35 19 -35 26 0 8 -12 13 -28 13 -23 0
-30 6 -42 38 -8 20 -14 40 -15 44 0 4 -6 13 -12 20 -7 6 -13 24 -13 38 0 15
-3 30 -7 34 -5 4 -8 11 -8 14 0 4 -8 18 -17 32 -8 14 -15 42 -14 63 1 31 -4
43 -26 62 -15 12 -24 25 -21 28 3 3 -3 18 -12 34 -17 29 -59 56 -70 44 -10 -9
-59 -7 -66 3 -9 12 -49 -12 -49 -29 0 -8 -6 -15 -13 -15 -7 0 -21 -13 -30 -30
-20 -33 -10 -70 19 -70 8 0 12 5 9 10 -8 12 37 75 63 89 40 21 69 2 103 -68
18 -36 34 -74 36 -85 2 -10 12 -30 22 -45 12 -16 17 -36 14 -53 -3 -14 0 -29
6 -32 6 -4 11 -16 11 -27 0 -11 7 -34 17 -52 24 -47 26 -80 4 -74 -25 6 -51
-10 -51 -33 0 -11 -7 -20 -15 -20 -8 0 -15 6 -15 14 0 7 -9 25 -20 38 -10 14
-17 28 -14 31 3 3 -4 15 -15 26 -12 12 -21 34 -21 51 0 23 -6 33 -26 40 -14 6
-23 14 -20 18 8 14 -24 69 -50 82 -13 7 -24 19 -24 27 0 7 -4 13 -8 13 -14 0
-92 76 -92 88 0 7 -7 12 -15 12 -23 0 -65 30 -65 46 0 8 -3 14 -7 14 -5 0 -24
15 -43 33 -66 61 -66 61 -92 33z m712 -546 c0 -5 8 -11 18 -14 9 -3 22 -16 29
-28 31 -61 40 -86 46 -121 5 -32 2 -43 -18 -63 -27 -27 -76 -32 -95 -9 -7 8
-18 15 -25 15 -7 0 -20 16 -29 35 -9 19 -21 37 -26 40 -6 4 -7 17 -4 30 3 12
1 26 -5 29 -18 12 -12 23 15 30 19 5 24 11 19 26 -4 14 -2 20 8 20 8 0 20 6
27 14 11 15 40 11 40 -4z m-159 -83 c-13 -13 -31 0 -24 19 4 11 8 12 20 3 9
-8 10 -16 4 -22z m-1319 -347 c31 -26 146 -112 166 -125 9 -5 36 -22 59 -37
23 -16 46 -28 51 -28 5 0 17 -9 28 -21 16 -17 16 -22 4 -30 -8 -5 -35 -8 -60
-7 -43 3 -45 5 -48 36 -4 41 -27 42 -41 0 -9 -24 -14 -29 -23 -20 -7 7 -20 12
-29 12 -10 0 -29 14 -43 31 -20 24 -24 34 -15 45 6 7 7 19 3 26 -9 15 -56 53
-65 53 -13 0 -60 65 -54 75 10 16 41 12 67 -10z m-822 -145 c10 -12 10 -15 -4
-15 -9 0 -16 7 -16 15 0 8 2 15 4 15 2 0 9 -7 16 -15z m1254 -130 c33 -14 49
-35 26 -35 -5 0 -10 -6 -10 -14 0 -7 -7 -19 -15 -26 -8 -7 -15 -21 -15 -31 0
-10 -9 -32 -19 -50 -14 -23 -21 -27 -27 -17 -14 21 -13 69 1 74 8 4 12 20 11
47 -3 38 1 67 9 67 1 0 19 -7 39 -15z m546 -15 c0 -13 -43 -30 -76 -30 -32 0
-31 14 4 27 36 14 72 16 72 3z m-660 -27 c0 -25 -24 -91 -38 -105 -7 -7 -12
-18 -12 -25 0 -7 -11 -13 -24 -13 -20 0 -27 8 -39 43 -23 64 -15 113 18 101 7
-3 16 -1 20 5 3 6 22 11 41 11 26 0 34 -4 34 -17z m716 -11 c6 -4 25 -29 42
-57 26 -43 31 -59 30 -117 l0 -68 -32 -4 c-17 -3 -47 -8 -66 -11 -104 -16
-390 -20 -457 -5 -73 17 -122 42 -123 64 0 11 8 43 17 72 15 48 19 53 40 48
14 -4 23 -2 23 6 0 6 -4 9 -9 6 -5 -3 -14 0 -20 8 -10 11 -1 13 52 9 39 -4 79
-1 103 7 23 8 95 14 176 15 81 1 142 5 150 12 11 9 29 16 58 22 3 0 10 -3 16
-7z m-575 -289 c9 -7 27 -16 40 -19 13 -3 29 -6 34 -7 6 -2 16 -6 23 -10 7 -5
54 -11 105 -13 50 -3 98 -7 105 -9 7 -2 23 0 36 4 12 5 65 11 117 12 52 2 102
7 112 11 30 15 52 -6 52 -51 0 -23 -3 -41 -6 -41 -4 0 -10 -17 -14 -37 -4 -21
-12 -41 -17 -44 -6 -4 -12 -24 -13 -45 -2 -30 -8 -40 -31 -52 -16 -8 -50 -30
-76 -48 -26 -19 -52 -34 -56 -34 -5 0 -17 -9 -27 -20 -39 -43 -200 -49 -256
-9 -15 10 -30 19 -32 19 -15 0 -95 90 -100 111 -3 13 -15 50 -26 82 -14 38
-18 63 -13 74 5 8 7 47 4 86 -5 74 -3 76 39 40z m99 -773 c0 -5 -4 -10 -10
-10 -5 0 -10 5 -10 10 0 6 5 10 10 10 6 0 10 -4 10 -10z"/>
<path d="M3914 3782 c-66 -29 -193 -120 -194 -139 -1 -29 60 -16 117 25 17 12
36 22 42 22 6 0 15 9 21 20 6 11 25 22 48 26 52 9 122 43 122 60 0 24 -87 16
-156 -14z"/>
<path d="M4857 3764 c-3 -4 -56 -6 -116 -6 -85 1 -112 -2 -122 -14 -6 -8 -10
-17 -7 -20 3 -2 106 -7 229 -10 123 -3 228 -8 234 -12 5 -4 26 -7 45 -9 35 -2
107 -15 187 -35 23 -6 46 -7 52 -3 6 3 11 2 11 -3 0 -5 12 -14 26 -20 14 -7
23 -8 19 -2 -3 5 -2 10 3 10 6 0 13 -7 16 -16 3 -8 10 -13 15 -9 5 3 12 1 15
-4 10 -15 97 -61 117 -61 10 0 26 -13 35 -29 10 -17 21 -28 26 -25 11 7 38
-21 38 -40 0 -8 4 -17 9 -20 27 -17 83 -183 96 -284 3 -23 8 -61 11 -84 11
-77 13 -102 19 -243 3 -77 10 -178 15 -225 5 -47 12 -130 16 -185 3 -55 9
-116 13 -135 14 -66 -8 -567 -28 -636 -5 -17 -7 -45 -5 -63 2 -17 -3 -48 -11
-69 -8 -20 -19 -56 -25 -79 -14 -57 -87 -129 -143 -143 -23 -6 -51 -15 -62
-20 -18 -8 -156 -26 -285 -37 -25 -2 -63 -6 -85 -8 -22 -3 -89 -7 -150 -9 -60
-2 -156 -7 -212 -11 -93 -7 -104 -6 -138 14 -26 15 -60 23 -123 27 -48 3 -103
7 -122 9 -19 2 -84 6 -143 8 -78 3 -111 8 -117 18 -7 11 -10 10 -16 -4 -6 -15
-34 -25 -34 -11 0 20 39 39 79 39 25 1 46 6 49 13 2 7 10 12 18 12 33 0 4 48
-38 63 -22 8 -23 27 -2 27 11 0 14 5 10 16 -3 9 -6 17 -6 19 0 2 -21 7 -46 11
-37 5 -51 3 -73 -13 -15 -11 -38 -20 -51 -19 -14 1 -38 -5 -55 -13 -16 -8 -38
-14 -48 -12 -10 1 -44 -11 -76 -27 -31 -17 -74 -34 -94 -37 -44 -8 -157 -63
-181 -88 -10 -9 -14 -17 -10 -17 4 0 0 -6 -11 -13 -19 -15 -13 -37 10 -37 7 0
15 -4 17 -9 2 -4 13 -11 25 -15 18 -6 22 -4 17 7 -3 8 2 17 10 20 9 4 16 13
16 22 0 9 10 15 25 16 14 1 30 3 35 4 6 1 15 3 20 4 6 0 10 8 10 16 0 17 -1
17 59 20 24 2 47 7 50 12 3 5 14 12 24 16 10 4 16 11 13 16 -3 5 1 14 9 21 10
9 15 9 15 1 0 -13 36 -15 45 -2 3 5 31 13 63 17 31 3 65 10 74 15 11 6 19 5
24 -3 4 -6 2 -14 -4 -16 -7 -2 -12 -10 -12 -19 0 -10 -6 -12 -20 -8 -13 4 -23
0 -32 -14 -13 -21 -48 -29 -48 -11 0 6 -4 10 -10 10 -5 0 -7 -7 -4 -15 5 -12
-2 -15 -29 -15 -26 0 -39 -6 -51 -25 -11 -17 -26 -25 -44 -25 -16 0 -38 -9
-50 -21 -12 -11 -27 -17 -32 -14 -12 7 -93 -29 -110 -50 -11 -14 -10 -17 8
-22 12 -3 22 -9 22 -13 0 -12 69 -3 85 10 10 9 19 9 35 0 15 -8 25 -8 34 -1
23 19 100 38 137 33 25 -3 41 1 53 14 14 13 20 14 26 5 5 -10 13 -10 27 -2 21
10 220 20 238 10 6 -3 55 -4 110 -4 78 1 102 -2 111 -14 8 -10 27 -15 55 -14
68 3 98 4 112 4 55 -1 141 10 153 20 11 9 21 9 37 2 13 -6 50 -9 82 -6 33 2
92 6 130 8 77 4 158 19 192 37 17 8 29 8 48 0 16 -7 26 -8 31 -1 3 6 10 6 17
1 17 -13 146 10 157 28 7 11 12 12 20 4 17 -17 80 4 80 27 0 11 11 20 31 24
18 4 34 16 38 28 5 12 18 31 30 41 11 11 21 25 21 33 0 7 5 13 11 13 7 0 9 10
7 25 -3 16 2 32 15 46 15 16 20 37 22 83 1 34 -3 64 -9 68 -8 5 -7 11 1 19 9
9 9 16 0 31 -10 15 -9 20 3 28 18 11 17 7 24 227 3 103 1 175 -4 178 -6 3 -7
23 -4 43 9 56 9 62 -14 227 -4 33 -7 77 -7 98 1 20 -2 37 -7 37 -5 0 -6 11 -2
25 3 14 2 25 -4 25 -5 0 -7 11 -5 25 3 13 0 39 -6 56 -8 23 -8 36 0 45 8 10 7
18 -5 29 -17 18 -20 26 -8 24 18 -3 26 2 15 9 -8 5 -9 19 -3 47 6 25 5 42 -1
46 -5 3 -12 30 -14 60 -12 167 -17 212 -31 244 -8 20 -13 39 -10 43 6 11 -31
151 -45 168 -6 7 -8 18 -4 24 4 7 -2 18 -13 26 -12 8 -19 21 -15 29 6 19 -24
68 -37 60 -6 -4 -10 -1 -10 5 0 15 -71 80 -87 80 -7 0 -13 5 -13 10 0 6 -9 10
-19 10 -11 0 -22 4 -25 9 -12 19 -196 99 -196 85 0 -3 -10 1 -22 7 -44 24
-140 37 -309 43 -69 2 -135 7 -146 10 -11 3 -22 3 -26 0z m-622 -2374 c7 -11
-12 -50 -24 -50 -14 0 -21 44 -8 52 16 10 25 10 32 -2z"/>
<path d="M3500 3575 c-14 -8 -46 -24 -71 -35 -25 -12 -59 -33 -75 -49 -16 -15
-44 -34 -62 -42 -18 -8 -35 -21 -37 -29 -3 -8 -20 -24 -38 -35 -37 -24 -48
-55 -19 -55 11 0 32 10 48 23 77 60 238 168 276 184 24 11 29 9 60 -29 18 -22
47 -59 63 -83 31 -43 92 -119 133 -163 12 -14 22 -29 22 -33 0 -5 14 -9 30 -9
38 0 40 26 6 63 -26 28 -66 82 -66 90 0 2 18 5 39 5 98 2 273 153 206 178 -25
10 -110 -38 -110 -61 0 -11 -7 -21 -15 -21 -8 -1 -20 -2 -26 -3 -6 0 -16 -13
-23 -27 -7 -17 -17 -24 -26 -20 -9 3 -26 0 -40 -6 -19 -8 -31 -8 -51 1 -15 6
-24 14 -21 17 5 6 -11 28 -65 86 -16 17 -28 33 -28 37 0 6 -68 32 -81 31 -2 0
-15 -7 -29 -15z"/>
<path d="M3542 3319 c-24 -11 -46 -27 -49 -35 -3 -8 -11 -14 -17 -14 -7 0 -39
-11 -71 -24 -53 -22 -57 -24 -37 -35 28 -15 58 -14 112 5 50 17 120 79 120
107 0 21 -4 21 -58 -4z"/>
<path d="M4045 3121 c-17 -14 -254 -83 -304 -86 -25 -3 -70 1 -99 6 -65 13
-113 5 -91 -15 34 -32 223 -41 334 -16 22 5 56 12 75 15 19 3 45 13 57 21 12
7 31 14 41 14 20 0 52 29 52 47 0 20 -48 30 -65 14z"/>
<path d="M2733 3103 c-37 -13 -14 -41 206 -246 28 -26 58 -59 67 -72 19 -30
34 -31 63 -7 l22 17 -52 55 c-28 30 -68 72 -88 94 -39 42 -154 137 -186 153
-11 6 -26 8 -32 6z"/>
<path d="M2794 2598 c36 -84 66 -164 66 -175 0 -30 35 -123 47 -123 7 0 13 -4
13 -10 0 -5 -4 -10 -10 -10 -13 0 -1 -98 16 -134 8 -16 14 -40 14 -54 0 -42
51 -232 67 -251 13 -15 20 -17 44 -8 16 6 29 16 29 22 0 6 -12 55 -26 110 -14
55 -27 109 -30 121 -2 11 -13 49 -24 84 -11 34 -20 71 -20 82 0 36 -70 233
-108 303 -31 57 -43 71 -65 73 -27 3 -27 3 -13 -30z"/>
<path d="M5315 2138 c-16 -5 -64 -11 -105 -12 -105 -5 -143 -11 -148 -25 -3
-9 -7 -9 -18 0 -9 7 -14 8 -14 1 0 -6 -16 -9 -37 -7 -21 2 -42 0 -48 -4 -5 -4
-38 -14 -72 -21 -35 -7 -63 -17 -63 -21 0 -5 -11 -9 -24 -9 -14 0 -28 -5 -32
-11 -3 -6 -19 -9 -34 -5 -18 3 -33 0 -41 -10 -6 -8 -14 -12 -17 -9 -3 3 -10 0
-17 -5 -6 -5 -27 -10 -46 -12 -20 -1 -45 -12 -62 -28 -15 -14 -35 -25 -45 -26
-61 -4 -81 -40 -43 -80 16 -18 43 -61 47 -74 4 -18 20 -49 38 -75 33 -47 44
-72 92 -215 9 -25 19 -54 24 -65 4 -11 16 -48 25 -82 17 -58 35 -78 50 -53 3
5 -1 44 -10 87 -15 70 -33 121 -98 268 -29 66 -95 177 -114 192 -32 25 6 50
127 83 25 6 72 20 106 31 33 10 70 19 82 19 11 0 33 5 49 11 15 7 40 13 56 15
15 2 42 6 60 8 17 3 34 6 37 7 3 1 10 3 15 4 6 1 17 5 25 8 8 3 57 8 109 11
52 3 98 9 104 15 6 6 19 6 34 0 34 -13 202 -19 230 -8 29 11 33 73 6 84 -42
17 -185 25 -228 13z"/>
<path d="M4070 1578 c-97 -26 -153 -37 -162 -32 -10 6 -88 -36 -88 -48 0 -5
-5 -6 -11 -3 -5 4 -18 0 -28 -9 -10 -9 -25 -14 -34 -11 -8 4 -18 2 -22 -4 -3
-6 -14 -11 -24 -11 -9 0 -27 -9 -39 -21 -12 -11 -27 -17 -32 -14 -5 3 -20 -3
-32 -14 -12 -12 -27 -21 -33 -21 -16 0 -37 -43 -37 -75 0 -14 7 -34 17 -45 16
-18 19 -18 40 -2 23 17 25 27 12 50 -5 7 -3 12 6 12 18 0 75 28 82 41 4 5 10
7 15 4 8 -5 169 72 180 86 10 13 62 25 122 28 15 0 33 8 41 16 8 8 17 12 20 9
3 -3 29 3 58 12 39 13 54 14 57 6 5 -15 35 -15 49 -1 13 13 6 39 -16 56 -22
17 -54 15 -141 -9z"/>
<path d="M2635 1329 c-16 -4 -61 -7 -100 -8 -38 -1 -89 -6 -112 -10 -35 -7
-43 -6 -43 6 0 13 -4 13 -26 -2 -18 -12 -29 -13 -38 -6 -7 6 -15 8 -19 5 -8
-8 -243 -8 -256 0 -6 4 -11 0 -11 -8 0 -9 -6 -16 -12 -16 -7 0 -5 -5 5 -11 10
-6 55 -12 100 -14 45 -3 94 -6 108 -9 14 -2 63 0 110 5 94 11 512 13 635 3 43
-3 106 -7 139 -8 34 -1 66 -6 73 -10 11 -7 76 -8 134 -2 15 1 34 8 42 15 13
11 16 11 16 -3 0 -9 7 -16 15 -16 8 0 15 5 15 11 0 6 7 8 16 5 28 -11 9 18
-25 38 -24 14 -57 20 -120 22 -177 7 -271 13 -279 18 -4 3 -25 1 -46 -4 -21
-5 -48 -5 -59 -1 -11 4 -37 5 -56 1 -32 -5 -96 -5 -96 1 0 5 -83 4 -110 -2z"/>
</g>
</svg>
