<?xml version="1.0" standalone="no"?>
<!DOCTYPE svg PUBLIC "-//W3C//DTD SVG 20010904//EN"
 "http://www.w3.org/TR/2001/REC-SVG-20010904/DTD/svg10.dtd">
<svg version="1.0" xmlns="http://www.w3.org/2000/svg"
 width="736.000000pt" height="517.000000pt" viewBox="0 0 736.000000 517.000000"
 preserveAspectRatio="xMidYMid meet">

<g transform="translate(0.000000,517.000000) scale(0.100000,-0.100000)"
fill="#000000" stroke="none">
<path d="M4039 4516 c-9 -19 -7 -36 6 -77 10 -30 21 -58 26 -63 23 -25 4 -24
-43 3 -60 33 -147 56 -176 46 -37 -11 -34 -36 15 -124 69 -123 186 -238 316
-310 95 -52 157 -99 157 -119 0 -5 -19 -12 -42 -16 -24 -3 -70 -20 -104 -38
l-60 -32 -150 47 c-252 78 -325 90 -549 88 -185 -1 -168 4 -510 -133 -43 -17
-63 -19 -146 -13 -156 11 -210 -26 -175 -120 l18 -45 -74 -86 c-125 -146 -140
-178 -167 -359 -10 -67 -88 -255 -111 -270 -21 -13 -83 -139 -95 -193 -20 -83
-45 -314 -45 -407 0 -99 22 -145 70 -145 19 0 34 7 42 20 18 28 25 25 32 -13
9 -49 41 -79 79 -75 27 2 34 9 43 38 13 38 34 298 34 412 0 67 7 106 48 252
19 66 66 122 142 166 23 14 56 36 74 50 17 14 47 34 66 44 41 23 101 68 150
112 19 18 58 43 85 57 81 41 249 106 291 112 21 4 56 11 78 16 50 14 255 13
342 -1 38 -6 104 -20 146 -31 81 -22 99 -36 151 -119 28 -44 113 -104 186
-130 139 -51 226 -97 278 -148 26 -26 75 -78 107 -116 71 -82 150 -146 180
-146 27 0 56 29 56 55 0 37 -50 102 -144 189 -53 49 -95 90 -93 92 2 2 52 -21
111 -51 107 -54 149 -65 187 -45 29 16 23 40 -22 95 -74 90 -235 186 -409 244
-112 37 -223 103 -218 129 5 24 50 19 188 -25 108 -34 118 -35 169 -25 62 13
98 42 133 108 22 43 22 45 6 86 -49 130 -84 199 -123 249 -59 75 -65 94 -65
198 0 94 -18 181 -48 231 -30 48 -232 258 -280 291 -57 39 -117 69 -137 69 -8
0 -20 -11 -26 -24z m121 -54 c100 -67 292 -275 316 -342 15 -44 32 -200 22
-200 -3 0 -25 33 -49 72 -48 79 -211 256 -271 294 -42 27 -81 87 -103 160 -8
27 -15 53 -15 57 0 14 43 -4 100 -41z m-147 -112 c112 -58 169 -100 259 -188
71 -69 159 -186 200 -267 32 -63 61 -111 92 -150 42 -52 76 -109 76 -126 0 -8
14 -41 30 -74 38 -77 38 -103 -2 -153 -26 -31 -44 -42 -85 -52 -49 -12 -57
-11 -147 19 -94 31 -195 50 -228 43 -13 -2 -18 -13 -18 -39 0 -107 67 -188
219 -261 83 -41 98 -52 116 -87 31 -63 63 -100 132 -156 96 -78 147 -160 108
-175 -30 -12 -121 67 -238 207 -50 61 -125 115 -197 143 -25 10 -58 24 -75 31
-16 7 -57 25 -89 39 -78 35 -142 88 -156 130 -25 77 -159 125 -405 147 -60 5
-130 7 -155 4 -90 -12 -255 -47 -267 -57 -22 -18 -163 -66 -163 -56 0 5 9 22
19 37 57 80 46 218 -22 261 -30 18 -31 4 -3 -33 52 -68 47 -138 -15 -241 -41
-68 -95 -124 -153 -161 -18 -11 -46 -30 -62 -43 -16 -12 -77 -54 -136 -93 -59
-38 -123 -88 -141 -110 -56 -64 -107 -248 -107 -384 -1 -105 -16 -331 -26
-369 -10 -42 -47 -35 -69 14 -16 36 -17 60 -12 232 7 205 18 268 72 395 21 51
28 89 36 205 23 333 31 364 128 478 26 30 64 79 85 108 38 52 38 53 22 86 -24
50 -20 64 22 85 31 16 46 18 78 11 77 -18 136 -12 230 25 49 20 131 52 182 71
222 84 491 68 871 -53 l113 -37 73 37 c40 20 85 37 102 37 35 0 53 16 53 48 0
31 -63 87 -150 132 -97 51 -236 167 -264 220 -7 14 -32 55 -55 92 -22 37 -41
71 -41 74 0 17 93 -9 163 -46z m433 -1156 c129 -43 219 -89 293 -148 63 -51
121 -112 121 -129 0 -21 -74 0 -170 48 -60 30 -116 55 -124 55 -8 0 -17 9 -21
20 -10 30 -59 66 -126 92 -62 23 -179 119 -179 145 0 7 28 -3 64 -23 35 -19
99 -46 142 -60z m-2075 -260 c-6 -63 -18 -115 -44 -179 -42 -108 -53 -164 -67
-360 -14 -193 -46 -270 -84 -196 -22 42 -20 169 5 359 22 167 37 214 102 309
19 29 47 78 61 109 15 31 28 55 31 52 3 -2 1 -45 -4 -94z"/>
<path d="M4338 3712 c-10 -2 -18 -9 -18 -15 0 -13 50 -101 72 -127 51 -62 218
-117 234 -77 9 24 -25 84 -68 118 -65 53 -187 109 -220 101z m72 -47 c26 -13
29 -19 23 -48 -7 -37 -14 -47 -20 -30 -2 7 -15 28 -29 48 -13 20 -24 38 -24
40 0 9 21 5 50 -10z m161 -107 c19 -24 25 -48 12 -48 -5 0 -25 5 -46 11 l-37
10 17 24 c22 30 30 31 54 3z"/>
<path d="M4050 3617 c0 -4 17 -11 38 -16 20 -6 106 -39 190 -75 138 -58 189
-70 130 -32 -75 48 -358 145 -358 123z"/>
<path d="M4070 3521 c8 -6 35 -13 60 -17 25 -3 89 -17 142 -30 53 -13 107 -24
119 -24 44 0 3 17 -106 43 -124 30 -239 45 -215 28z"/>
<path d="M4626 3432 c-3 -5 -2 -19 1 -31 l6 -22 20 22 c16 17 17 23 6 30 -18
11 -26 11 -33 1z"/>
<path d="M3536 2918 c-2 -7 -9 -60 -15 -118 -6 -58 -16 -121 -22 -140 -6 -19
-19 -55 -27 -80 -23 -68 -122 -184 -185 -216 -53 -27 -188 -64 -233 -64 -28 0
-32 -16 -6 -24 9 -3 69 -15 132 -26 156 -29 241 -76 307 -170 60 -85 93 -166
107 -265 6 -44 16 -80 21 -80 6 0 13 43 16 97 8 118 11 132 56 233 41 96 48
104 134 161 86 57 171 84 265 84 40 0 76 5 79 10 9 15 -9 18 -130 23 -141 6
-201 26 -264 86 -92 89 -131 170 -171 351 -11 52 -24 106 -28 119 -8 28 -30
39 -36 19z"/>
<path d="M4831 2562 c-17 -32 -30 -134 -41 -327 -11 -179 -17 -220 -57 -355
-27 -91 -53 -116 -243 -235 -81 -50 -118 -77 -151 -108 -68 -65 -161 -188
-180 -237 -32 -85 -24 -130 35 -199 15 -17 17 -22 6 -19 -8 2 -30 28 -47 58
-28 45 -32 60 -27 94 9 59 46 134 93 186 22 24 38 46 37 48 -2 2 -19 -5 -37
-16 -19 -10 -47 -23 -64 -29 -16 -7 -70 -27 -120 -47 -208 -80 -549 -76 -742
9 -45 21 -57 31 -74 69 -26 59 -87 111 -179 153 -41 18 -84 38 -95 43 -11 5
-42 18 -69 30 -68 28 -145 89 -198 158 -63 79 -165 178 -199 193 -24 9 -33 9
-54 -5 -32 -21 -32 -49 3 -108 24 -40 145 -163 217 -220 13 -10 33 -34 44 -52
15 -24 51 -50 127 -92 144 -78 201 -147 178 -212 -17 -47 -32 -48 -160 -7
-144 45 -182 51 -240 35 -37 -11 -52 -23 -84 -68 -47 -64 -49 -87 -16 -156 14
-29 31 -71 38 -95 7 -23 43 -82 80 -129 36 -48 101 -139 145 -202 135 -198
390 -434 498 -460 67 -16 105 -8 105 23 0 35 -100 196 -160 257 -76 77 -143
126 -256 185 -36 18 -84 63 -84 78 0 9 16 16 46 21 26 3 70 20 97 37 l51 31
160 -51 c256 -81 409 -106 601 -97 101 5 131 11 238 47 67 23 138 49 157 58
81 40 116 45 208 33 82 -11 89 -11 132 11 38 18 45 27 48 55 2 18 -3 46 -12
63 -15 30 -15 30 46 102 34 40 73 84 87 98 65 66 104 197 89 294 -7 48 -5 126
8 229 4 27 24 101 45 165 49 145 68 246 78 433 9 160 8 183 -17 214 -24 30
-79 39 -91 16z m-2259 -1278 c-4 -24 -6 -24 -21 -9 -14 14 -14 17 -1 25 23 15
28 12 22 -16z m397 -128 c63 -36 112 -66 107 -66 -17 0 -243 127 -252 142 -7
12 -5 10 145 -76z m-99 -3 c0 -8 -36 16 -55 38 -16 19 -13 18 18 -5 20 -16 37
-30 37 -33z m-182 2 c2 -2 -4 -15 -14 -29 -16 -26 -17 -26 -36 -9 -11 10 -24
26 -30 37 -10 18 -7 18 33 12 24 -4 45 -9 47 -11z m295 -76 c22 -11 37 -23 34
-26 -8 -8 -91 44 -118 74 l-24 27 35 -27 c19 -15 52 -36 73 -48z m-164 -41
c25 -41 17 -47 -30 -22 -24 12 -30 20 -25 37 3 12 6 29 6 37 0 13 2 13 13 0 8
-8 24 -32 36 -52z"/>
<path d="M4977 2486 c-10 -10 -16 -53 -21 -143 -9 -176 -30 -298 -76 -433 -21
-63 -43 -137 -48 -165 -15 -69 -21 -191 -11 -207 7 -10 9 -10 9 0 0 19 83 184
112 223 77 102 104 191 133 444 20 171 19 208 -5 255 -17 33 -26 40 -49 40
-16 0 -36 -6 -44 -14z"/>
<path d="M2338 1799 c-36 -20 -21 -57 50 -127 85 -83 203 -153 347 -207 122
-46 154 -61 204 -99 37 -28 51 -22 43 19 -8 45 -68 99 -173 158 -78 44 -112
70 -138 104 -25 34 -53 55 -115 85 -44 23 -97 49 -116 59 -39 21 -76 24 -102
8z"/>
<path d="M2660 740 c0 -92 14 -169 42 -224 44 -86 263 -307 349 -352 97 -51
124 -11 77 111 -18 47 -33 66 -92 114 -119 98 -206 198 -316 364 -25 37 -48
67 -52 67 -5 0 -8 -36 -8 -80z"/>
</g>
</svg>
